{
  "accessors": [
    {
      "bufferView": 1,
      "componentType": 5126,
      "count": 180,
      "max": [
        0.3999899923801422,
        0.40895000100135803,
        3.4538700580596924
      ],
      "min": [
        -0.4561299979686737,
        -0.4471699893474579,
        1.5487500429153442
      ],
      "type": "VEC3"
    },
    {
      "bufferView": 1,
      "byteOffset": 2160,
      "componentType": 5126,
      "count": 180,
      "max": [
        0.9777974486351013,
        0.9948282241821289,
        0.9999410510063171
      ],
      "min": [
        -0.9887635111808777,
        -0.9817125797271729,
        -0.9998770356178284
      ],
      "type": "VEC3"
    },
    {
      "bufferView": 0,
      "componentType": 5125,
      "count": 1020,
      "type": "SCALAR"
    },
    {
      "bufferView": 1,
      "byteOffset": 4320,
      "componentType": 5126,
      "count": 32,
      "max": [
        0.45855000615119934,
        0.5178700089454651,
        21.622089385986328
      ],
      "min": [
        -0.45855000615119934,
        -0.5178700089454651,
        -1.7788100242614746
      ],
      "type": "VEC3"
    },
    {
      "bufferView": 1,
      "byteOffset": 4704,
      "componentType": 5126,
      "count": 32,
      "max": [
        1.0,
        1.0,
        0.0
      ],
      "min": [
        -1.0,
        -1.0,
        0.0
      ],
      "type": "VEC3"
    },
    {
      "bufferView": 0,
      "byteOffset": 4080,
      "componentType": 5125,
      "count": 96,
      "type": "SCALAR"
    },
    {
      "bufferView": 1,
      "byteOffset": 5088,
      "componentType": 5126,
      "count": 4,
      "max": [
        1.0,
        1.0,
        0.0
      ],
      "min": [
        -1.0,
        -1.0,
        0.0
      ],
      "type": "VEC3"
    },
    {
      "bufferView": 1,
      "byteOffset": 5136,
      "componentType": 5126,
      "count": 4,
      "max": [
        0.0,
        0.0,
        1.0
      ],
      "min": [
        0.0,
        0.0,
        1.0
      ],
      "type": "VEC3"
    },
    {
      "bufferView": 0,
      "byteOffset": 4464,
      "componentType": 5125,
      "count": 6,
      "type": "SCALAR"
    }
  ],
  "asset": {
    "extras": {
      "author": "Akm.Saharu (https://sketchfab.com/Akm.Saharu)",
      "license": "CC-BY-4.0 (http://creativecommons.org/licenses/by/4.0/)",
      "source": "https://sketchfab.com/3d-models/low-poly-tree-af9cf1fbafb44f4a8134001dbae73882",
      "title": "Low Poly Tree"
    },
    "generator": "Sketchfab-12.67.0",
    "version": "2.0"
  },
  "bufferViews": [
    {
      "buffer": 0,
      "byteLength": 4488,
      "name": "floatBufferViews",
      "target": 34963
    },
    {
      "buffer": 0,
      "byteLength": 5184,
      "byteOffset": 4488,
      "byteStride": 12,
      "name": "floatBufferViews",
      "target": 34962
    }
  ],
  "buffers": [
    {
      "byteLength": 9672,
      "uri": "scene.bin"
    }
  ],
  "extensionsRequired": [
    "KHR_materials_pbrSpecularGlossiness"
  ],
  "extensionsUsed": [
    "KHR_materials_pbrSpecularGlossiness"
  ],
  "materials": [
    {
      "doubleSided": true,
      "extensions": {
        "KHR_materials_pbrSpecularGlossiness": {
          "diffuseFactor": [
            0.0,
            0.0,
            0.0,
            1.0
          ],
          "glossinessFactor": 0.4,
          "specularFactor": [
            0.0,
            0.0,
            0.0
          ]
        }
      },
      "name": "Root"
    },
    {
      "doubleSided": true,
      "extensions": {
        "KHR_materials_pbrSpecularGlossiness": {
          "diffuseFactor": [
            0.015876293507004053,
            0.0027276780767663163,
            0.0027276780767663163,
            1.0
          ],
          "glossinessFactor": 1.0,
          "specularFactor": [
            0.004392995794644547,
            0.04167169351225246,
            0.01827259292351946
          ]
        }
      },
      "name": "Material.002"
    },
    {
      "doubleSided": true,
      "extensions": {
        "KHR_materials_pbrSpecularGlossiness": {
          "diffuseFactor": [
            0.009205328839392315,
            0.2438378681299503,
            0.00550832364647999,
            1.0
          ],
          "glossinessFactor": 0.75,
          "specularFactor": [
            0.0,
            0.3536585365853659,
            0.20619725062392266
          ]
        }
      },
      "name": "Material.001"
    }
  ],
  "meshes": [
    {
      "name": "Circle.002_0",
      "primitives": [
        {
          "attributes": {
            "NORMAL": 1,
            "POSITION": 0
          },
          "indices": 2,
          "material": 2,
          "mode": 4
        }
      ]
    },
    {
      "name": "Circle.001_0",
      "primitives": [
        {
          "attributes": {
            "NORMAL": 4,
            "POSITION": 3
          },
          "indices": 5,
          "material": 1,
          "mode": 4
        }
      ]
    },
    {
      "name": "Plane_0",
      "primitives": [
        {
          "attributes": {
            "NORMAL": 7,
            "POSITION": 6
          },
          "indices": 8,
          "material": 0,
          "mode": 4
        }
      ]
    }
  ],
  "nodes": [
    {
      "children": [
        1
      ],
      "matrix": [
        1.0,
        0.0,
        0.0,
        0.0,
        0.0,
        2.220446049250313e-16,
        -1.0,
        0.0,
        0.0,
        1.0,
        2.220446049250313e-16,
        0.0,
        0.0,
        0.0,
        0.0,
        1.0
      ],
      "name": "Sketchfab_model"
    },
    {
      "children": [
        2,
        4,
        6,
        8,
        10,
        12
      ],
      "name": "Root"
    },
    {
      "children": [
        3
      ],
      "matrix": [
        0.95616,
        -0.0,
        0.29284000000000004,
        0.0,
        0.0,
        1.0,
        0.0,
        0.0,
        -0.29284000000000004,
        0.0,
        0.95616,
        0.0,
        -7.55138,
        0.0,
        9.721789999999999,
        1.0
      ],
      "name": "Sun.001"
    },
    {
      "name": "Sun.001"
    },
    {
      "children": [
        5
      ],
      "matrix": [
        1.2070999999999998,
        0.0,
        0.0,
        0.0,
        0.0,
        1.2070999999999998,
        0.0,
        0.0,
        0.0,
        0.0,
        1.2070999999999998,
        0.0,
        -0.0006500000000000002,
        -0.007610000000000001,
        -1.3780800000000002,
        1.0
      ],
      "name": "Circle.002"
    },
    {
      "mesh": 0,
      "name": "Circle.002_0"
    },
    {
      "children": [
        7
      ],
      "matrix": [
        0.07046000000000001,
        0.0,
        0.0,
        0.0,
        0.0,
        0.07046000000000001,
        0.0,
        0.0,
        0.0,
        0.0,
        0.09763000000000004,
        0.0,
        -0.0016500000000000004,
        -0.014220000000000002,
        -0.0019100000000000007,
        1.0
      ],
      "name": "Circle.001"
    },
    {
      "mesh": 1,
      "name": "Circle.001_0"
    },
    {
      "children": [
        9
      ],
      "matrix": [
        -0.29086000000000006,
        0.9551700000000001,
        -0.05519000000000001,
        0.0,
        -0.7711,
        -0.19988000000000003,
        0.6045200000000001,
        0.0,
        0.5663900000000001,
        0.21839000000000003,
        0.7946700000000001,
        0.0,
        4.076250000000001,
        1.00545,
        5.903860000000001,
        1.0
      ],
      "name": "Lamp"
    },
    {
      "name": "Lamp"
    },
    {
      "children": [
        11
      ],
      "matrix": [
        4.401940000000001,
        0.0,
        0.0,
        0.0,
        0.0,
        4.401940000000001,
        0.0,
        0.0,
        0.0,
        0.0,
        4.401940000000001,
        0.0,
        0.0,
        0.0,
        0.0,
        1.0
      ],
      "name": "Plane"
    },
    {
      "mesh": 2,
      "name": "Plane_0"
    },
    {
      "children": [
        13
      ],
      "matrix": [
        0.97187,
        0.0,
        -0.23553000000000002,
        0.0,
        -0.0,
        1.0,
        0.0,
        0.0,
        0.23553000000000002,
        0.0,
        0.97187,
        0.0,
        3.8420499999999995,
        0.0,
        9.721789999999999,
        1.0
      ],
      "name": "Sun"
    },
    {
      "name": "Sun"
    }
  ],
  "scene": 0,
  "scenes": [
    {
      "name": "Sketchfab_Scene",
      "nodes": [
        0
      ]
    }
  ]
}
