{
  "accessors": [
    {
      "bufferView": 2,
      "componentType": 5126,
      "count": 8715,
      "max": [
        23.22176170349121,
        12.077566146850586,
        12.64073371887207
      ],
      "min": [
        -5.46617317199707,
        -4.202537536621094,
        -0.9717768430709839
      ],
      "type": "VEC3"
    },
    {
      "bufferView": 2,
      "byteOffset": 104580,
      "componentType": 5126,
      "count": 8715,
      "max": [
        1.0,
        1.0,
        1.0
      ],
      "min": [
        -1.0,
        -1.0,
        -1.0
      ],
      "type": "VEC3"
    },
    {
      "bufferView": 3,
      "componentType": 5126,
      "count": 8715,
      "max": [
        1.0,
        1.0,
        1.0,
        1.0
      ],
      "min": [
        -1.0,
        -1.0,
        -1.0,
        -1.0
      ],
      "type": "VEC4"
    },
    {
      "bufferView": 1,
      "componentType": 5126,
      "count": 8715,
      "max": [
        1.4313814640045166,
        0.9996287822723389
      ],
      "min": [
        -0.31876763701438904,
        -0.3017815053462982
      ],
      "type": "VEC2"
    },
    {
      "bufferView": 0,
      "componentType": 5125,
      "count": 15120,
      "type": "SCALAR"
    }
  ],
  "asset": {
    "extras": {
      "author": "spicybamer (https://sketchfab.com/spicybamer)",
      "license": "CC-BY-4.0 (http://creativecommons.org/licenses/by/4.0/)",
      "source": "https://sketchfab.com/3d-models/low-poly-desert-builing-b3179b5b68264806b85441eec1dd8da4",
      "title": "Low poly desert builing"
    },
    "generator": "Sketchfab-14.35.0",
    "version": "2.0"
  },
  "bufferViews": [
    {
      "buffer": 0,
      "byteLength": 60480,
      "name": "floatBufferViews",
      "target": 34963
    },
    {
      "buffer": 0,
      "byteLength": 69720,
      "byteOffset": 60480,
      "byteStride": 8,
      "name": "floatBufferViews",
      "target": 34962
    },
    {
      "buffer": 0,
      "byteLength": 209160,
      "byteOffset": 130200,
      "byteStride": 12,
      "name": "floatBufferViews",
      "target": 34962
    },
    {
      "buffer": 0,
      "byteLength": 139440,
      "byteOffset": 339360,
      "byteStride": 16,
      "name": "floatBufferViews",
      "target": 34962
    }
  ],
  "buffers": [
    {
      "byteLength": 478800,
      "uri": "scene.bin"
    }
  ],
  "images": [
    {
      "uri": "textures/builing_1_baseColor.jpeg"
    },
    {
      "uri": "textures/builing_1_metallicRoughness.png"
    },
    {
      "uri": "textures/builing_1_normal.png"
    }
  ],
  "materials": [
    {
      "doubleSided": true,
      "name": "builing_1",
      "normalTexture": {
        "index": 2,
        "scale": 0.5886361285690819
      },
      "pbrMetallicRoughness": {
        "baseColorTexture": {
          "index": 0
        },
        "metallicFactor": 0.0,
        "metallicRoughnessTexture": {
          "index": 1
        },
        "roughnessFactor": 0.44261786411783677
      }
    }
  ],
  "meshes": [
    {
      "name": "builing1_builing 1_0",
      "primitives": [
        {
          "attributes": {
            "NORMAL": 1,
            "POSITION": 0,
            "TANGENT": 2,
            "TEXCOORD_0": 3
          },
          "indices": 4,
          "material": 0,
          "mode": 4
        }
      ]
    }
  ],
  "nodes": [
    {
      "children": [
        1
      ],
      "matrix": [
        1.0,
        0.0,
        0.0,
        0.0,
        0.0,
        2.220446049250313e-16,
        -1.0,
        0.0,
        0.0,
        1.0,
        2.220446049250313e-16,
        0.0,
        0.0,
        0.0,
        0.0,
        1.0
      ],
      "name": "Sketchfab_model"
    },
    {
      "children": [
        2
      ],
      "matrix": [
        0.009999999776482582,
        0.0,
        0.0,
        0.0,
        0.0,
        0.0,
        0.009999999776482582,
        0.0,
        0.0,
        -0.009999999776482582,
        0.0,
        0.0,
        0.0,
        0.0,
        0.0,
        1.0
      ],
      "name": "c79cb6da88fc4617a1bbc75189b00293.fbx"
    },
    {
      "children": [
        3
      ],
      "name": "RootNode"
    },
    {
      "children": [
        4
      ],
      "matrix": [
        120.98924255371094,
        0.0,
        0.0,
        0.0,
        -0.0,
        -1.9711649595953666e-05,
        -120.98924255370935,
        0.0,
        0.0,
        120.98924255370935,
        -1.9711649595953666e-05,
        0.0,
        -1806.19873046875,
        34.472232818603516,
        356.052001953125,
        1.0
      ],
      "name": "builing1"
    },
    {
      "mesh": 0,
      "name": "builing1_builing 1_0"
    }
  ],
  "samplers": [
    {
      "magFilter": 9729,
      "minFilter": 9987,
      "wrapS": 10497,
      "wrapT": 10497
    }
  ],
  "scene": 0,
  "scenes": [
    {
      "name": "Sketchfab_Scene",
      "nodes": [
        0
      ]
    }
  ],
  "textures": [
    {
      "sampler": 0,
      "source": 0
    },
    {
      "sampler": 0,
      "source": 1
    },
    {
      "sampler": 0,
      "source": 2
    }
  ]
}
