{"buffers":[{"uri":"model_pack.bin","byteLength":4664}],"asset":{"version":"2.0","generator":"gltfpack 0.18"},"extensionsUsed":["KHR_mesh_quantization"],"extensionsRequired":["KHR_mesh_quantization"],"bufferViews":[{"buffer":0,"byteOffset":0,"byteLength":2344,"byteStride":8,"target":34962},{"buffer":0,"byteOffset":2344,"byteLength":1148,"byteStride":4,"target":34962},{"buffer":0,"byteOffset":3492,"byteLength":1170,"target":34963}],"accessors":[{"bufferView":0,"byteOffset":0,"componentType":5123,"count":123,"type":"VEC3","min":[0,0,0],"max":[7236,8363,16383]},{"bufferView":1,"byteOffset":0,"componentType":5120,"count":123,"type":"VEC3","normalized":true},{"bufferView":2,"byteOffset":0,"componentType":5123,"count":249,"type":"SCALAR"},{"bufferView":1,"byteOffset":492,"componentType":5120,"count":89,"type":"VEC3","normalized":true},{"bufferView":0,"byteOffset":984,"componentType":5123,"count":89,"type":"VEC3","min":[0,0,0],"max":[7236,8363,16383]},{"bufferView":2,"byteOffset":498,"componentType":5123,"count":177,"type":"SCALAR"},{"bufferView":1,"byteOffset":848,"componentType":5120,"count":12,"type":"VEC3","normalized":true},{"bufferView":0,"byteOffset":1696,"componentType":5123,"count":12,"type":"VEC3","min":[0,8363,0],"max":[7236,8363,16383]},{"bufferView":2,"byteOffset":852,"componentType":5123,"count":30,"type":"SCALAR"},{"bufferView":1,"byteOffset":896,"componentType":5120,"count":28,"type":"VEC3","normalized":true},{"bufferView":0,"byteOffset":1792,"componentType":5123,"count":28,"type":"VEC3","min":[0,5874,0],"max":[6811,7805,16383]},{"bufferView":2,"byteOffset":912,"componentType":5123,"count":60,"type":"SCALAR"},{"bufferView":0,"byteOffset":2016,"componentType":5123,"count":25,"type":"VEC3","min":[425,5874,0],"max":[7236,7805,16383]},{"bufferView":1,"byteOffset":1008,"componentType":5120,"count":25,"type":"VEC3","normalized":true},{"bufferView":2,"byteOffset":1032,"componentType":5123,"count":45,"type":"SCALAR"},{"bufferView":0,"byteOffset":2216,"componentType":5123,"count":5,"type":"VEC3","min":[425,7805,1391],"max":[7236,7805,8191]},{"bufferView":1,"byteOffset":1108,"componentType":5120,"count":5,"type":"VEC3","normalized":true},{"bufferView":2,"byteOffset":1122,"componentType":5123,"count":9,"type":"SCALAR"},{"bufferView":0,"byteOffset":2256,"componentType":5123,"count":5,"type":"VEC3","min":[425,7805,1391],"max":[7236,7805,8191]},{"bufferView":1,"byteOffset":1128,"componentType":5120,"count":5,"type":"VEC3","normalized":true},{"bufferView":2,"byteOffset":1140,"componentType":5123,"count":9,"type":"SCALAR"},{"bufferView":0,"byteOffset":2296,"componentType":5123,"count":6,"type":"VEC3","min":[0,5874,425],"max":[7220,5874,16383]},{"bufferView":2,"byteOffset":1158,"componentType":5123,"count":6,"type":"SCALAR"}],"materials":[{"name":"Dark Brown","pbrMetallicRoughness":{"baseColorFactor":[0.345098048,0.196078435,0,1]},"doubleSided":true},{"name":"Material7","pbrMetallicRoughness":{"baseColorFactor":[0.721568644,0.588235319,0.466666669,1]},"doubleSided":true},{"name":"default_face_material","pbrMetallicRoughness":{"baseColorFactor":[0.980392158,0.980392158,0.980392158,1]},"doubleSided":true},{"name":"Dark Brown","pbrMetallicRoughness":{"baseColorFactor":[0.345098048,0.196078435,0,1]}},{"name":"default_face_material13","pbrMetallicRoughness":{"baseColorFactor":[0.980392158,0.980392158,0.980392158,1]}},{"pbrMetallicRoughness":{"baseColorFactor":[0,0,0,1],"metallicFactor":0.200000003,"roughnessFactor":0.400000006},"doubleSided":true}],"meshes":[{"primitives":[{"attributes":{"POSITION":0,"NORMAL":1},"indices":2,"material":0},{"attributes":{"NORMAL":3,"POSITION":4},"indices":5,"material":0},{"attributes":{"NORMAL":6,"POSITION":7},"indices":8,"material":1},{"attributes":{"NORMAL":9,"POSITION":10},"indices":11,"material":2},{"attributes":{"POSITION":12,"NORMAL":13},"indices":14,"material":2},{"attributes":{"POSITION":15,"NORMAL":16},"indices":17,"material":3},{"attributes":{"POSITION":18,"NORMAL":19},"indices":20,"material":4},{"attributes":{"POSITION":21},"mode":1,"indices":22,"material":5}]}],"nodes":[{"mesh":0,"translation":[0,0,-1.74342966],"scale":[0.000106416999,0.000106416999,0.000106416999]}],"scenes":[{"nodes":[0]}],"scene":0}