{"buffers":[{"uri":"model_packed.bin","byteLength":24032}],"asset":{"version":"2.0","generator":"gltfpack 0.18"},"extensionsUsed":["KHR_mesh_quantization"],"extensionsRequired":["KHR_mesh_quantization"],"bufferViews":[{"buffer":0,"byteOffset":0,"byteLength":11824,"byteStride":8,"target":34962},{"buffer":0,"byteOffset":11824,"byteLength":5912,"byteStride":4,"target":34962},{"buffer":0,"byteOffset":17736,"byteLength":6294,"target":34963}],"accessors":[{"bufferView":0,"byteOffset":0,"componentType":5123,"count":125,"type":"VEC3","min":[0,0,3259],"max":[10448,14511,15429]},{"bufferView":1,"byteOffset":0,"componentType":5120,"count":125,"type":"VEC3","normalized":true},{"bufferView":2,"byteOffset":0,"componentType":5123,"count":300,"type":"SCALAR"},{"bufferView":1,"byteOffset":500,"componentType":5120,"count":38,"type":"VEC3","normalized":true},{"bufferView":0,"byteOffset":1000,"componentType":5123,"count":38,"type":"VEC3","min":[0,0,3259],"max":[5401,14511,14288]},{"bufferView":2,"byteOffset":600,"componentType":5123,"count":90,"type":"SCALAR"},{"bufferView":1,"byteOffset":652,"componentType":5120,"count":4,"type":"VEC3","normalized":true},{"bufferView":0,"byteOffset":1304,"componentType":5123,"count":4,"type":"VEC3","min":[2124,6926,8408],"max":[3891,6926,10280]},{"bufferView":2,"byteOffset":780,"componentType":5123,"count":6,"type":"SCALAR"},{"bufferView":1,"byteOffset":668,"componentType":5120,"count":144,"type":"VEC3","normalized":true},{"bufferView":0,"byteOffset":1336,"componentType":5123,"count":144,"type":"VEC3","min":[7376,0,6100],"max":[10781,1386,16383]},{"bufferView":2,"byteOffset":792,"componentType":5123,"count":570,"type":"SCALAR"},{"bufferView":1,"byteOffset":1244,"componentType":5120,"count":144,"type":"VEC3","normalized":true},{"bufferView":0,"byteOffset":2488,"componentType":5123,"count":144,"type":"VEC3","min":[7376,0,6100],"max":[10781,1386,16383]},{"bufferView":2,"byteOffset":1932,"componentType":5123,"count":570,"type":"SCALAR"},{"bufferView":1,"byteOffset":1820,"componentType":5120,"count":8,"type":"VEC3","normalized":true},{"bufferView":0,"byteOffset":3640,"componentType":5123,"count":8,"type":"VEC3","min":[9899,0,1872],"max":[11003,468,2647]},{"bufferView":2,"byteOffset":3072,"componentType":5123,"count":12,"type":"SCALAR"},{"bufferView":0,"byteOffset":3704,"componentType":5123,"count":47,"type":"VEC3","min":[3891,0,1872],"max":[11003,14062,14991]},{"bufferView":1,"byteOffset":1852,"componentType":5120,"count":47,"type":"VEC3","normalized":true},{"bufferView":2,"byteOffset":3096,"componentType":5123,"count":93,"type":"SCALAR"},{"bufferView":0,"byteOffset":4080,"componentType":5123,"count":4,"type":"VEC3","min":[9424,468,2278],"max":[9424,565,2410]},{"bufferView":1,"byteOffset":2040,"componentType":5120,"count":4,"type":"VEC3","normalized":true},{"bufferView":2,"byteOffset":3282,"componentType":5123,"count":6,"type":"SCALAR"},{"bufferView":1,"byteOffset":2056,"componentType":5120,"count":16,"type":"VEC3","normalized":true},{"bufferView":0,"byteOffset":4112,"componentType":5123,"count":16,"type":"VEC3","min":[9014,468,2278],"max":[9424,565,2410]},{"bufferView":2,"byteOffset":3294,"componentType":5123,"count":24,"type":"SCALAR"},{"bufferView":0,"byteOffset":4240,"componentType":5123,"count":60,"type":"VEC3","min":[7376,0,6100],"max":[10781,1386,16383]},{"bufferView":1,"byteOffset":2120,"componentType":5120,"count":60,"type":"VEC3","normalized":true},{"bufferView":2,"byteOffset":3342,"componentType":5123,"count":108,"type":"SCALAR"},{"bufferView":0,"byteOffset":4720,"componentType":5123,"count":60,"type":"VEC3","min":[7376,0,6100],"max":[10781,1386,16383]},{"bufferView":1,"byteOffset":2360,"componentType":5120,"count":60,"type":"VEC3","normalized":true},{"bufferView":2,"byteOffset":3558,"componentType":5123,"count":108,"type":"SCALAR"},{"bufferView":0,"byteOffset":5200,"componentType":5123,"count":23,"type":"VEC3","min":[2955,0,2574],"max":[10842,6415,10280]},{"bufferView":1,"byteOffset":2600,"componentType":5120,"count":23,"type":"VEC3","normalized":true},{"bufferView":2,"byteOffset":3774,"componentType":5123,"count":33,"type":"SCALAR"},{"bufferView":1,"byteOffset":2692,"componentType":5120,"count":392,"type":"VEC3","normalized":true},{"bufferView":0,"byteOffset":5384,"componentType":5123,"count":392,"type":"VEC3","min":[7926,136,8774],"max":[10305,1229,15697]},{"bufferView":2,"byteOffset":3840,"componentType":5123,"count":588,"type":"SCALAR"},{"bufferView":0,"byteOffset":8520,"componentType":5123,"count":380,"type":"VEC3","min":[7886,136,6633],"max":[10305,1241,15697]},{"bufferView":1,"byteOffset":4260,"componentType":5120,"count":380,"type":"VEC3","normalized":true},{"bufferView":2,"byteOffset":5016,"componentType":5123,"count":570,"type":"SCALAR"},{"bufferView":0,"byteOffset":11560,"componentType":5123,"count":33,"type":"VEC3","min":[7376,0,0],"max":[12525,468,4681]},{"bufferView":1,"byteOffset":5780,"componentType":5120,"count":33,"type":"VEC3","normalized":true},{"bufferView":2,"byteOffset":6156,"componentType":5123,"count":69,"type":"SCALAR"}],"materials":[{"name":"Material9","pbrMetallicRoughness":{"baseColorFactor":[0.396078438,0.4627451,0.521568656,1]},"doubleSided":true},{"name":"default_face_material","pbrMetallicRoughness":{"baseColorFactor":[0.980392158,0.980392158,0.980392158,1]},"doubleSided":true},{"name":"Material9","pbrMetallicRoughness":{"baseColorFactor":[0.396078438,0.4627451,0.521568656,1]}},{"name":"default_face_material1","pbrMetallicRoughness":{"baseColorFactor":[0.980392158,0.980392158,0.980392158,1]}},{"name":"Material5","pbrMetallicRoughness":{"baseColorFactor":[0.0666666701,0.0549019612,0.0470588244,1]},"doubleSided":true},{"name":"Red","pbrMetallicRoughness":{"baseColorFactor":[0.447058827,0,0,1]},"doubleSided":true},{"name":"<auto>1","pbrMetallicRoughness":{},"doubleSided":true},{"name":"Material","pbrMetallicRoughness":{"baseColorFactor":[0.992156863,0.796078444,0.243137255,1]},"doubleSided":true}],"meshes":[{"primitives":[{"attributes":{"POSITION":0,"NORMAL":1},"indices":2,"material":0},{"attributes":{"NORMAL":3,"POSITION":4},"indices":5,"material":0},{"attributes":{"NORMAL":6,"POSITION":7},"indices":8,"material":1},{"attributes":{"NORMAL":9,"POSITION":10},"indices":11,"material":2},{"attributes":{"NORMAL":12,"POSITION":13},"indices":14,"material":3},{"attributes":{"NORMAL":15,"POSITION":16},"indices":17,"material":4},{"attributes":{"POSITION":18,"NORMAL":19},"indices":20,"material":4},{"attributes":{"POSITION":21,"NORMAL":22},"indices":23,"material":5},{"attributes":{"NORMAL":24,"POSITION":25},"indices":26,"material":5},{"attributes":{"POSITION":27,"NORMAL":28},"indices":29,"material":3},{"attributes":{"POSITION":30,"NORMAL":31},"indices":32,"material":2},{"attributes":{"POSITION":33,"NORMAL":34},"indices":35,"material":1},{"attributes":{"NORMAL":36,"POSITION":37},"indices":38,"material":6},{"attributes":{"POSITION":39,"NORMAL":40},"indices":41,"material":6},{"attributes":{"POSITION":42,"NORMAL":43},"indices":44,"material":7}]}],"nodes":[{"mesh":0,"translation":[0.277077973,-1.12798658e-17,-0.729801834],"scale":[2.13636122e-05,2.13636122e-05,2.13636122e-05]}],"scenes":[{"nodes":[0]}],"scene":0}