{"buffers":[{"uri":"packed.bin","byteLength":249732}],"asset":{"version":"2.0","generator":"gltfpack 0.18"},"extensionsUsed":["KHR_mesh_quantization","KHR_texture_transform"],"extensionsRequired":["KHR_mesh_quantization"],"bufferViews":[{"buffer":0,"byteOffset":0,"byteLength":30896},{"buffer":0,"byteOffset":30896,"byteLength":213749},{"buffer":0,"byteOffset":244648,"byteLength":1104,"byteStride":4,"target":34962},{"buffer":0,"byteOffset":245752,"byteLength":2352,"byteStride":8,"target":34962},{"buffer":0,"byteOffset":248104,"byteLength":1164,"target":34963},{"buffer":0,"byteOffset":249268,"byteLength":464,"byteStride":4,"target":34962}],"accessors":[{"bufferView":2,"byteOffset":0,"componentType":5120,"count":20,"type":"VEC3","normalized":true},{"bufferView":3,"byteOffset":0,"componentType":5123,"count":20,"type":"VEC3","min":[0,4019,0],"max":[7582,5277,15165]},{"bufferView":4,"byteOffset":0,"componentType":5123,"count":30,"type":"SCALAR"},{"bufferView":3,"byteOffset":160,"componentType":5123,"count":12,"type":"VEC3","min":[191,95,0],"max":[7392,95,15165]},{"bufferView":2,"byteOffset":80,"componentType":5120,"count":12,"type":"VEC3","normalized":true},{"bufferView":5,"byteOffset":0,"componentType":5123,"count":12,"type":"VEC2","normalized":true},{"bufferView":4,"byteOffset":60,"componentType":5123,"count":30,"type":"SCALAR"},{"bufferView":2,"byteOffset":128,"componentType":5120,"count":59,"type":"VEC3","normalized":true},{"bufferView":3,"byteOffset":256,"componentType":5123,"count":59,"type":"VEC3","min":[0,0,0],"max":[7582,4019,15165]},{"bufferView":5,"byteOffset":48,"componentType":5123,"count":59,"type":"VEC2","normalized":true},{"bufferView":4,"byteOffset":120,"componentType":5123,"count":147,"type":"SCALAR"},{"bufferView":3,"byteOffset":728,"componentType":5123,"count":45,"type":"VEC3","min":[191,95,0],"max":[7392,3828,15165]},{"bufferView":2,"byteOffset":364,"componentType":5120,"count":45,"type":"VEC3","normalized":true},{"bufferView":5,"byteOffset":284,"componentType":5123,"count":45,"type":"VEC2","normalized":true},{"bufferView":4,"byteOffset":414,"componentType":5123,"count":87,"type":"SCALAR"},{"bufferView":3,"byteOffset":1088,"componentType":5123,"count":36,"type":"VEC3","min":[191,1244,191],"max":[7392,3828,14967]},{"bufferView":2,"byteOffset":544,"componentType":5120,"count":36,"type":"VEC3","normalized":true},{"bufferView":4,"byteOffset":588,"componentType":5123,"count":54,"type":"SCALAR"},{"bufferView":2,"byteOffset":688,"componentType":5120,"count":8,"type":"VEC3","normalized":true},{"bufferView":3,"byteOffset":1376,"componentType":5123,"count":8,"type":"VEC3","min":[0,0,0],"max":[7582,4019,15165]},{"bufferView":4,"byteOffset":696,"componentType":5123,"count":12,"type":"SCALAR"},{"bufferView":2,"byteOffset":720,"componentType":5120,"count":8,"type":"VEC3","normalized":true},{"bufferView":3,"byteOffset":1440,"componentType":5123,"count":8,"type":"VEC3","min":[251,1244,1639],"max":[251,2943,8205]},{"bufferView":4,"byteOffset":720,"componentType":5123,"count":24,"type":"SCALAR"},{"bufferView":3,"byteOffset":1504,"componentType":5123,"count":4,"type":"VEC3","min":[206,1305,1700],"max":[206,2881,8144]},{"bufferView":2,"byteOffset":752,"componentType":5120,"count":4,"type":"VEC3","normalized":true},{"bufferView":4,"byteOffset":768,"componentType":5123,"count":6,"type":"SCALAR"},{"bufferView":3,"byteOffset":1536,"componentType":5123,"count":24,"type":"VEC3","min":[0,95,15165],"max":[874,2880,16383]},{"bufferView":2,"byteOffset":768,"componentType":5120,"count":24,"type":"VEC3","normalized":true},{"bufferView":4,"byteOffset":780,"componentType":5123,"count":60,"type":"SCALAR"},{"bufferView":3,"byteOffset":1728,"componentType":5123,"count":4,"type":"VEC3","min":[0,2880,15165],"max":[874,2880,16383]},{"bufferView":2,"byteOffset":864,"componentType":5120,"count":4,"type":"VEC3","normalized":true},{"bufferView":4,"byteOffset":900,"componentType":5123,"count":6,"type":"SCALAR"},{"bufferView":2,"byteOffset":880,"componentType":5120,"count":44,"type":"VEC3","normalized":true},{"bufferView":3,"byteOffset":1760,"componentType":5123,"count":44,"type":"VEC3","min":[62,95,15208],"max":[874,2880,16383]},{"bufferView":4,"byteOffset":912,"componentType":5123,"count":90,"type":"SCALAR"},{"bufferView":2,"byteOffset":1056,"componentType":5120,"count":12,"type":"VEC3","normalized":true},{"bufferView":3,"byteOffset":2112,"componentType":5123,"count":12,"type":"VEC3","min":[155,258,15165],"max":[6770,2880,16249]},{"bufferView":4,"byteOffset":1092,"componentType":5123,"count":18,"type":"SCALAR"},{"bufferView":3,"byteOffset":2208,"componentType":5123,"count":18,"type":"VEC3","min":[191,95,0],"max":[7392,3828,15165]},{"bufferView":4,"byteOffset":1128,"componentType":5123,"count":18,"type":"SCALAR"}],"images":[{"bufferView":0,"mimeType":"image/jpeg"},{"bufferView":1,"mimeType":"image/jpeg"}],"textures":[{"source":0},{"source":1}],"materials":[{"name":"Roof","pbrMetallicRoughness":{"baseColorFactor":[0.196078435,0.196078435,0.196078435,1]},"doubleSided":true},{"name":"Material1","pbrMetallicRoughness":{"baseColorFactor":[0.423529416,0.239215687,0.117647059,1],"baseColorTexture":{"index":0,"extensions":{"KHR_texture_transform":{"offset":[0.157128915,-12.5],"scale":[94.9936218,200.045792]}}}},"doubleSided":true},{"name":"Brick","pbrMetallicRoughness":{"baseColorFactor":[0.686274529,0.466666669,0.450980395,1],"baseColorTexture":{"index":1,"extensions":{"KHR_texture_transform":{"offset":[-20,-20],"scale":[640.146545,320.073273]}}}},"doubleSided":true},{"name":"Material9","pbrMetallicRoughness":{"baseColorFactor":[0.396078438,0.4627451,0.521568656,1]},"doubleSided":true},{"name":"default_face_material","pbrMetallicRoughness":{"baseColorFactor":[0.980392158,0.980392158,0.980392158,1]},"doubleSided":true},{"name":"Material5","pbrMetallicRoughness":{"baseColorFactor":[0.196078435,0.129411772,0.0549019612,1]},"doubleSided":true},{"name":"Material6","pbrMetallicRoughness":{"baseColorFactor":[0.0470588244,0.0901960805,0.188235298,1]},"doubleSided":true},{"name":"Glass","pbrMetallicRoughness":{"baseColorFactor":[0,0,0,0.200000003]},"alphaMode":"BLEND","doubleSided":true},{"pbrMetallicRoughness":{"baseColorFactor":[0,0,0,1],"metallicFactor":0.200000003,"roughnessFactor":0.400000006},"doubleSided":true}],"meshes":[{"primitives":[{"attributes":{"NORMAL":0,"POSITION":1},"indices":2,"material":0},{"attributes":{"POSITION":3,"NORMAL":4,"TEXCOORD_0":5},"indices":6,"material":1},{"attributes":{"NORMAL":7,"POSITION":8,"TEXCOORD_0":9},"indices":10,"material":2},{"attributes":{"POSITION":11,"NORMAL":12,"TEXCOORD_0":13},"indices":14,"material":2},{"attributes":{"POSITION":15,"NORMAL":16},"indices":17,"material":3},{"attributes":{"NORMAL":18,"POSITION":19},"indices":20,"material":4},{"attributes":{"NORMAL":21,"POSITION":22},"indices":23,"material":3},{"attributes":{"POSITION":24,"NORMAL":25},"indices":26,"material":4},{"attributes":{"POSITION":27,"NORMAL":28},"indices":29,"material":5},{"attributes":{"POSITION":30,"NORMAL":31},"indices":32,"material":6},{"attributes":{"NORMAL":33,"POSITION":34},"indices":35,"material":5},{"attributes":{"NORMAL":36,"POSITION":37},"indices":38,"material":7},{"attributes":{"POSITION":39},"mode":1,"indices":40,"material":8}]}],"nodes":[{"mesh":0,"translation":[0,0,-10],"scale":[0.000659428828,0.000659428828,0.000659428828]}],"scenes":[{"nodes":[0]}],"scene":0}