{"buffers":[{"uri":"model_pack.bin","byteLength":2280}],"asset":{"version":"2.0","generator":"gltfpack 0.18"},"extensionsUsed":["KHR_mesh_quantization"],"extensionsRequired":["KHR_mesh_quantization"],"bufferViews":[{"buffer":0,"byteOffset":0,"byteLength":580,"byteStride":4,"target":34962},{"buffer":0,"byteOffset":580,"byteLength":1160,"byteStride":8,"target":34962},{"buffer":0,"byteOffset":1740,"byteLength":540,"target":34963}],"accessors":[{"bufferView":0,"byteOffset":0,"componentType":5120,"count":50,"type":"VEC3","normalized":true},{"bufferView":1,"byteOffset":0,"componentType":5123,"count":50,"type":"VEC3","min":[0,0,0],"max":[7236,8363,16383]},{"bufferView":2,"byteOffset":0,"componentType":5123,"count":90,"type":"SCALAR"},{"bufferView":1,"byteOffset":400,"componentType":5123,"count":49,"type":"VEC3","min":[0,0,0],"max":[7236,8363,16383]},{"bufferView":0,"byteOffset":200,"componentType":5120,"count":49,"type":"VEC3","normalized":true},{"bufferView":2,"byteOffset":180,"componentType":5123,"count":90,"type":"SCALAR"},{"bufferView":1,"byteOffset":792,"componentType":5123,"count":12,"type":"VEC3","min":[0,8363,0],"max":[7236,8363,16383]},{"bufferView":0,"byteOffset":396,"componentType":5120,"count":12,"type":"VEC3","normalized":true},{"bufferView":2,"byteOffset":360,"componentType":5123,"count":30,"type":"SCALAR"},{"bufferView":1,"byteOffset":888,"componentType":5123,"count":10,"type":"VEC3","min":[0,7805,0],"max":[7236,7805,16383]},{"bufferView":0,"byteOffset":444,"componentType":5120,"count":10,"type":"VEC3","normalized":true},{"bufferView":2,"byteOffset":420,"componentType":5123,"count":18,"type":"SCALAR"},{"bufferView":0,"byteOffset":484,"componentType":5120,"count":4,"type":"VEC3","normalized":true},{"bufferView":1,"byteOffset":968,"componentType":5123,"count":4,"type":"VEC3","min":[6811,7805,15958],"max":[7236,7805,16383]},{"bufferView":2,"byteOffset":456,"componentType":5123,"count":6,"type":"SCALAR"},{"bufferView":0,"byteOffset":500,"componentType":5120,"count":6,"type":"VEC3","normalized":true},{"bufferView":1,"byteOffset":1000,"componentType":5123,"count":6,"type":"VEC3","min":[425,7805,0],"max":[6811,7805,16383]},{"bufferView":2,"byteOffset":468,"componentType":5123,"count":12,"type":"SCALAR"},{"bufferView":0,"byteOffset":524,"componentType":5120,"count":6,"type":"VEC3","normalized":true},{"bufferView":1,"byteOffset":1048,"componentType":5123,"count":6,"type":"VEC3","min":[425,7805,0],"max":[6811,7805,16383]},{"bufferView":2,"byteOffset":492,"componentType":5123,"count":12,"type":"SCALAR"},{"bufferView":1,"byteOffset":1096,"componentType":5123,"count":4,"type":"VEC3","min":[6811,7805,425],"max":[7236,7805,15958]},{"bufferView":0,"byteOffset":548,"componentType":5120,"count":4,"type":"VEC3","normalized":true},{"bufferView":2,"byteOffset":516,"componentType":5123,"count":6,"type":"SCALAR"},{"bufferView":1,"byteOffset":1128,"componentType":5123,"count":4,"type":"VEC3","min":[6811,7805,425],"max":[7236,7805,15958]},{"bufferView":0,"byteOffset":564,"componentType":5120,"count":4,"type":"VEC3","normalized":true},{"bufferView":2,"byteOffset":528,"componentType":5123,"count":6,"type":"SCALAR"}],"materials":[{"name":"Dark Brown","pbrMetallicRoughness":{"baseColorFactor":[0.345098048,0.196078435,0,1]},"doubleSided":true},{"name":"Material7","pbrMetallicRoughness":{"baseColorFactor":[0.721568644,0.588235319,0.466666669,1]},"doubleSided":true},{"name":"default_face_material","pbrMetallicRoughness":{"baseColorFactor":[0.980392158,0.980392158,0.980392158,1]},"doubleSided":true},{"name":"Dark Brown","pbrMetallicRoughness":{"baseColorFactor":[0.345098048,0.196078435,0,1]}},{"name":"default_face_material2","pbrMetallicRoughness":{"baseColorFactor":[0.980392158,0.980392158,0.980392158,1]}}],"meshes":[{"primitives":[{"attributes":{"NORMAL":0,"POSITION":1},"indices":2,"material":0},{"attributes":{"POSITION":3,"NORMAL":4},"indices":5,"material":0},{"attributes":{"POSITION":6,"NORMAL":7},"indices":8,"material":1},{"attributes":{"POSITION":9,"NORMAL":10},"indices":11,"material":2},{"attributes":{"NORMAL":12,"POSITION":13},"indices":14,"material":2},{"attributes":{"NORMAL":15,"POSITION":16},"indices":17,"material":3},{"attributes":{"NORMAL":18,"POSITION":19},"indices":20,"material":4},{"attributes":{"POSITION":21,"NORMAL":22},"indices":23,"material":3},{"attributes":{"POSITION":24,"NORMAL":25},"indices":26,"material":4}]}],"nodes":[{"mesh":0,"translation":[0,0,-1.74342966],"scale":[0.000106416999,0.000106416999,0.000106416999]}],"scenes":[{"nodes":[0]}],"scene":0}