{"buffers":[{"uri":"model_packed.bin","byteLength":2400}],"asset":{"version":"2.0","generator":"gltfpack 0.18"},"extensionsUsed":["KHR_mesh_quantization"],"extensionsRequired":["KHR_mesh_quantization"],"bufferViews":[{"buffer":0,"byteOffset":0,"byteLength":616,"byteStride":4,"target":34962},{"buffer":0,"byteOffset":616,"byteLength":1232,"byteStride":8,"target":34962},{"buffer":0,"byteOffset":1848,"byteLength":552,"target":34963}],"accessors":[{"bufferView":0,"byteOffset":0,"componentType":5120,"count":29,"type":"VEC3","normalized":true},{"bufferView":1,"byteOffset":0,"componentType":5123,"count":29,"type":"VEC3","min":[0,0,3259],"max":[5401,14511,15429]},{"bufferView":2,"byteOffset":0,"componentType":5123,"count":51,"type":"SCALAR"},{"bufferView":1,"byteOffset":232,"componentType":5123,"count":43,"type":"VEC3","min":[0,0,4400],"max":[5401,14511,15429]},{"bufferView":0,"byteOffset":116,"componentType":5120,"count":43,"type":"VEC3","normalized":true},{"bufferView":2,"byteOffset":102,"componentType":5123,"count":81,"type":"SCALAR"},{"bufferView":0,"byteOffset":288,"componentType":5120,"count":4,"type":"VEC3","normalized":true},{"bufferView":1,"byteOffset":576,"componentType":5123,"count":4,"type":"VEC3","min":[2124,6926,8408],"max":[2955,6926,10280]},{"bufferView":2,"byteOffset":264,"componentType":5123,"count":6,"type":"SCALAR"},{"bufferView":1,"byteOffset":608,"componentType":5123,"count":26,"type":"VEC3","min":[3891,0,1872],"max":[11003,14511,15429]},{"bufferView":0,"byteOffset":304,"componentType":5120,"count":26,"type":"VEC3","normalized":true},{"bufferView":2,"byteOffset":276,"componentType":5123,"count":42,"type":"SCALAR"},{"bufferView":0,"byteOffset":408,"componentType":5120,"count":18,"type":"VEC3","normalized":true},{"bufferView":1,"byteOffset":816,"componentType":5123,"count":18,"type":"VEC3","min":[7376,0,6100],"max":[10652,936,16383]},{"bufferView":2,"byteOffset":360,"componentType":5123,"count":24,"type":"SCALAR"},{"bufferView":0,"byteOffset":480,"componentType":5120,"count":14,"type":"VEC3","normalized":true},{"bufferView":1,"byteOffset":960,"componentType":5123,"count":14,"type":"VEC3","min":[7376,0,6100],"max":[10652,936,16383]},{"bufferView":2,"byteOffset":408,"componentType":5123,"count":18,"type":"SCALAR"},{"bufferView":1,"byteOffset":1072,"componentType":5123,"count":4,"type":"VEC3","min":[7376,0,6100],"max":[10652,936,16383]},{"bufferView":0,"byteOffset":536,"componentType":5120,"count":4,"type":"VEC3","normalized":true},{"bufferView":2,"byteOffset":444,"componentType":5123,"count":6,"type":"SCALAR"},{"bufferView":1,"byteOffset":1104,"componentType":5123,"count":8,"type":"VEC3","min":[7376,0,0],"max":[12525,0,4681]},{"bufferView":0,"byteOffset":552,"componentType":5120,"count":8,"type":"VEC3","normalized":true},{"bufferView":2,"byteOffset":456,"componentType":5123,"count":24,"type":"SCALAR"},{"bufferView":1,"byteOffset":1168,"componentType":5123,"count":8,"type":"VEC3","min":[7376,0,0],"max":[12525,0,4681]},{"bufferView":0,"byteOffset":584,"componentType":5120,"count":8,"type":"VEC3","normalized":true},{"bufferView":2,"byteOffset":504,"componentType":5123,"count":24,"type":"SCALAR"}],"materials":[{"name":"Material9","pbrMetallicRoughness":{"baseColorFactor":[0.396078438,0.4627451,0.521568656,1]},"doubleSided":true},{"name":"default_face_material","pbrMetallicRoughness":{"baseColorFactor":[0.980392158,0.980392158,0.980392158,1]},"doubleSided":true},{"name":"Material5","pbrMetallicRoughness":{"baseColorFactor":[0.0666666701,0.0549019612,0.0470588244,1]},"doubleSided":true},{"name":"Material9","pbrMetallicRoughness":{"baseColorFactor":[0.396078438,0.4627451,0.521568656,1]}},{"name":"default_face_material1","pbrMetallicRoughness":{"baseColorFactor":[0.980392158,0.980392158,0.980392158,1]}},{"name":"Material","pbrMetallicRoughness":{"baseColorFactor":[0.992156863,0.796078444,0.243137255,1]}}],"meshes":[{"primitives":[{"attributes":{"NORMAL":0,"POSITION":1},"indices":2,"material":0},{"attributes":{"POSITION":3,"NORMAL":4},"indices":5,"material":0},{"attributes":{"NORMAL":6,"POSITION":7},"indices":8,"material":1},{"attributes":{"POSITION":9,"NORMAL":10},"indices":11,"material":2},{"attributes":{"NORMAL":12,"POSITION":13},"indices":14,"material":3},{"attributes":{"NORMAL":15,"POSITION":16},"indices":17,"material":4},{"attributes":{"POSITION":18,"NORMAL":19},"indices":20,"material":4},{"attributes":{"POSITION":21,"NORMAL":22},"indices":23,"material":3},{"attributes":{"POSITION":24,"NORMAL":25},"indices":26,"material":5}]}],"nodes":[{"mesh":0,"translation":[0.277077973,0,-0.729801834],"scale":[2.13636122e-05,2.13636122e-05,2.13636122e-05]}],"scenes":[{"nodes":[0]}],"scene":0}