{"buffers":[{"uri":"packed.bin","byteLength":247544}],"asset":{"version":"2.0","generator":"gltfpack 0.18"},"extensionsUsed":["KHR_mesh_quantization","KHR_texture_transform"],"extensionsRequired":["KHR_mesh_quantization"],"bufferViews":[{"buffer":0,"byteOffset":0,"byteLength":213749},{"buffer":0,"byteOffset":213752,"byteLength":30896},{"buffer":0,"byteOffset":244648,"byteLength":604,"byteStride":4,"target":34962},{"buffer":0,"byteOffset":245252,"byteLength":1208,"byteStride":8,"target":34962},{"buffer":0,"byteOffset":246460,"byteLength":536,"byteStride":4,"target":34962},{"buffer":0,"byteOffset":246996,"byteLength":546,"target":34963}],"accessors":[{"bufferView":2,"byteOffset":0,"componentType":5120,"count":13,"type":"VEC3","normalized":true},{"bufferView":3,"byteOffset":0,"componentType":5123,"count":13,"type":"VEC3","min":[0,0,0],"max":[16317,1861,9320]},{"bufferView":4,"byteOffset":0,"componentType":5123,"count":13,"type":"VEC2","normalized":true},{"bufferView":5,"byteOffset":0,"componentType":5123,"count":27,"type":"SCALAR"},{"bufferView":3,"byteOffset":104,"componentType":5123,"count":8,"type":"VEC3","min":[59,0,0],"max":[16317,0,9320]},{"bufferView":2,"byteOffset":52,"componentType":5120,"count":8,"type":"VEC3","normalized":true},{"bufferView":4,"byteOffset":52,"componentType":5123,"count":8,"type":"VEC2","normalized":true},{"bufferView":5,"byteOffset":54,"componentType":5123,"count":18,"type":"SCALAR"},{"bufferView":2,"byteOffset":84,"componentType":5120,"count":60,"type":"VEC3","normalized":true},{"bufferView":3,"byteOffset":168,"componentType":5123,"count":60,"type":"VEC3","min":[0,0,0],"max":[16317,1861,9362]},{"bufferView":4,"byteOffset":84,"componentType":5123,"count":60,"type":"VEC2","normalized":true},{"bufferView":5,"byteOffset":90,"componentType":5123,"count":114,"type":"SCALAR"},{"bufferView":3,"byteOffset":648,"componentType":5123,"count":53,"type":"VEC3","min":[0,0,7021],"max":[16383,1861,9362]},{"bufferView":2,"byteOffset":324,"componentType":5120,"count":53,"type":"VEC3","normalized":true},{"bufferView":4,"byteOffset":324,"componentType":5123,"count":53,"type":"VEC2","normalized":true},{"bufferView":5,"byteOffset":318,"componentType":5123,"count":87,"type":"SCALAR"},{"bufferView":3,"byteOffset":1072,"componentType":5123,"count":8,"type":"VEC3","min":[0,0,7021],"max":[59,1861,9320]},{"bufferView":2,"byteOffset":536,"componentType":5120,"count":8,"type":"VEC3","normalized":true},{"bufferView":5,"byteOffset":492,"componentType":5123,"count":12,"type":"SCALAR"},{"bufferView":2,"byteOffset":568,"componentType":5120,"count":4,"type":"VEC3","normalized":true},{"bufferView":3,"byteOffset":1136,"componentType":5123,"count":4,"type":"VEC3","min":[0,0,9320],"max":[59,1038,9320]},{"bufferView":5,"byteOffset":516,"componentType":5123,"count":6,"type":"SCALAR"},{"bufferView":3,"byteOffset":1168,"componentType":5123,"count":5,"type":"VEC3","min":[0,0,7021],"max":[0,1861,9320]},{"bufferView":2,"byteOffset":584,"componentType":5120,"count":5,"type":"VEC3","normalized":true},{"bufferView":5,"byteOffset":528,"componentType":5123,"count":9,"type":"SCALAR"}],"images":[{"bufferView":0,"mimeType":"image/jpeg"},{"bufferView":1,"mimeType":"image/jpeg"}],"textures":[{"source":0},{"source":1}],"materials":[{"name":"Material","pbrMetallicRoughness":{"baseColorFactor":[0.686274529,0.466666669,0.450980395,1],"baseColorTexture":{"index":0,"extensions":{"KHR_texture_transform":{"offset":[0.117901877,-26.666666],"scale":[741.96344,426.764343]}}}}},{"name":"Material1","pbrMetallicRoughness":{"baseColorFactor":[0.423529416,0.239215687,0.117647059,1],"baseColorTexture":{"index":1,"extensions":{"KHR_texture_transform":{"offset":[0.104166664,-16.666666],"scale":[463.239349,265.548401]}}}}},{"name":"Material","pbrMetallicRoughness":{"baseColorFactor":[0.686274529,0.466666669,0.450980395,1],"baseColorTexture":{"index":0,"extensions":{"KHR_texture_transform":{"offset":[-46.4799995,-26.666666],"scale":[1490.68787,426.797913]}}}},"doubleSided":true},{"name":"default_face_material","pbrMetallicRoughness":{"baseColorFactor":[0.980392158,0.980392158,0.980392158,1]},"doubleSided":true},{"name":"default_face_material2","pbrMetallicRoughness":{"baseColorFactor":[0.980392158,0.980392158,0.980392158,1]}}],"meshes":[{"primitives":[{"attributes":{"NORMAL":0,"POSITION":1,"TEXCOORD_0":2},"indices":3,"material":0},{"attributes":{"POSITION":4,"NORMAL":5,"TEXCOORD_0":6},"indices":7,"material":1},{"attributes":{"NORMAL":8,"POSITION":9,"TEXCOORD_0":10},"indices":11,"material":2},{"attributes":{"POSITION":12,"NORMAL":13,"TEXCOORD_0":14},"indices":15,"material":2},{"attributes":{"POSITION":16,"NORMAL":17},"indices":18,"material":3},{"attributes":{"NORMAL":19,"POSITION":20},"indices":21,"material":3},{"attributes":{"POSITION":22,"NORMAL":23},"indices":24,"material":4}]}],"nodes":[{"mesh":0,"translation":[0,0,-40],"scale":[0.00427272171,0.00427272171,0.00427272171]}],"scenes":[{"nodes":[0]}],"scene":0}