{"buffers":[{"uri":"model.bin","byteLength":246188}],"asset":{"version":"2.0","generator":"gltfpack 0.18"},"extensionsUsed":["KHR_mesh_quantization","KHR_texture_transform"],"extensionsRequired":["KHR_mesh_quantization"],"bufferViews":[{"buffer":0,"byteOffset":0,"byteLength":213749},{"buffer":0,"byteOffset":213752,"byteLength":30896},{"buffer":0,"byteOffset":244648,"byteLength":656,"byteStride":8,"target":34962},{"buffer":0,"byteOffset":245304,"byteLength":312,"byteStride":4,"target":34962},{"buffer":0,"byteOffset":245616,"byteLength":264,"byteStride":4,"target":34962},{"buffer":0,"byteOffset":245880,"byteLength":308,"target":34963}],"accessors":[{"bufferView":2,"byteOffset":0,"componentType":5123,"count":12,"type":"VEC3","min":[0,0,0],"max":[16317,1861,9360]},{"bufferView":3,"byteOffset":0,"componentType":5120,"count":12,"type":"VEC3","normalized":true},{"bufferView":4,"byteOffset":0,"componentType":5123,"count":12,"type":"VEC2","normalized":true},{"bufferView":5,"byteOffset":0,"componentType":5123,"count":24,"type":"SCALAR"},{"bufferView":3,"byteOffset":48,"componentType":5120,"count":8,"type":"VEC3","normalized":true},{"bufferView":2,"byteOffset":96,"componentType":5123,"count":8,"type":"VEC3","min":[59,0,0],"max":[16317,0,9360]},{"bufferView":4,"byteOffset":48,"componentType":5123,"count":8,"type":"VEC2","normalized":true},{"bufferView":5,"byteOffset":48,"componentType":5123,"count":18,"type":"SCALAR"},{"bufferView":2,"byteOffset":160,"componentType":5123,"count":26,"type":"VEC3","min":[0,0,0],"max":[16383,1861,9360]},{"bufferView":3,"byteOffset":80,"componentType":5120,"count":26,"type":"VEC3","normalized":true},{"bufferView":4,"byteOffset":80,"componentType":5123,"count":26,"type":"VEC2","normalized":true},{"bufferView":5,"byteOffset":84,"componentType":5123,"count":48,"type":"SCALAR"},{"bufferView":3,"byteOffset":184,"componentType":5120,"count":16,"type":"VEC3","normalized":true},{"bufferView":2,"byteOffset":368,"componentType":5123,"count":16,"type":"VEC3","min":[0,0,7021],"max":[16317,1861,9360]},{"bufferView":4,"byteOffset":184,"componentType":5123,"count":16,"type":"VEC2","normalized":true},{"bufferView":5,"byteOffset":180,"componentType":5123,"count":36,"type":"SCALAR"},{"bufferView":3,"byteOffset":248,"componentType":5120,"count":8,"type":"VEC3","normalized":true},{"bufferView":2,"byteOffset":496,"componentType":5123,"count":8,"type":"VEC3","min":[0,0,7021],"max":[59,1861,9360]},{"bufferView":5,"byteOffset":252,"componentType":5123,"count":12,"type":"SCALAR"},{"bufferView":3,"byteOffset":280,"componentType":5120,"count":4,"type":"VEC3","normalized":true},{"bufferView":2,"byteOffset":560,"componentType":5123,"count":4,"type":"VEC3","min":[0,0,7021],"max":[59,0,9360]},{"bufferView":4,"byteOffset":248,"componentType":5123,"count":4,"type":"VEC2","normalized":true},{"bufferView":5,"byteOffset":276,"componentType":5123,"count":6,"type":"SCALAR"},{"bufferView":3,"byteOffset":296,"componentType":5120,"count":4,"type":"VEC3","normalized":true},{"bufferView":2,"byteOffset":592,"componentType":5123,"count":4,"type":"VEC3","min":[337,337,9360],"max":[15981,1524,9360]},{"bufferView":5,"byteOffset":288,"componentType":5123,"count":6,"type":"SCALAR"},{"bufferView":2,"byteOffset":624,"componentType":5123,"count":4,"type":"VEC3","min":[59,0,9360],"max":[59,1861,9362]},{"bufferView":5,"byteOffset":300,"componentType":5123,"count":4,"type":"SCALAR"}],"images":[{"bufferView":0,"mimeType":"image/jpeg"},{"bufferView":1,"mimeType":"image/jpeg"}],"textures":[{"source":0},{"source":1}],"materials":[{"name":"Material","pbrMetallicRoughness":{"baseColorFactor":[0.686274529,0.466666669,0.450980395,1],"baseColorTexture":{"index":0,"extensions":{"KHR_texture_transform":{"offset":[0,-26.666666],"scale":[743.85022,426.764343]}}}}},{"name":"Material1","pbrMetallicRoughness":{"baseColorFactor":[0.423529416,0.239215687,0.117647059,1],"baseColorTexture":{"index":1,"extensions":{"KHR_texture_transform":{"offset":[0.104166664,-16.666666],"scale":[463.239349,266.682007]}}}}},{"name":"Material","pbrMetallicRoughness":{"baseColorFactor":[0.686274529,0.466666669,0.450980395,1],"baseColorTexture":{"index":0,"extensions":{"KHR_texture_transform":{"offset":[-46.4799995,-26.666666],"scale":[1490.68787,426.764343]}}}},"doubleSided":true},{"name":"default_face_material","pbrMetallicRoughness":{"baseColorFactor":[0.980392158,0.980392158,0.980392158,1]}},{"name":"Material2 '","pbrMetallicRoughness":{"baseColorFactor":[0,0,0,0.203921571]},"alphaMode":"BLEND","doubleSided":true},{"pbrMetallicRoughness":{"baseColorFactor":[0,0,0,1],"metallicFactor":0.200000003,"roughnessFactor":0.400000006},"doubleSided":true}],"meshes":[{"primitives":[{"attributes":{"POSITION":0,"NORMAL":1,"TEXCOORD_0":2},"indices":3,"material":0},{"attributes":{"NORMAL":4,"POSITION":5,"TEXCOORD_0":6},"indices":7,"material":1},{"attributes":{"POSITION":8,"NORMAL":9,"TEXCOORD_0":10},"indices":11,"material":2},{"attributes":{"NORMAL":12,"POSITION":13,"TEXCOORD_0":14},"indices":15,"material":2},{"attributes":{"NORMAL":16,"POSITION":17},"indices":18,"material":3},{"attributes":{"NORMAL":19,"POSITION":20,"TEXCOORD_0":21},"indices":22,"material":0},{"attributes":{"NORMAL":23,"POSITION":24},"indices":25,"material":4},{"attributes":{"POSITION":26},"mode":1,"indices":27,"material":5}]}],"nodes":[{"mesh":0,"translation":[0,0,-40],"scale":[0.00427272171,0.00427272171,0.00427272171]}],"scenes":[{"nodes":[0]}],"scene":0}