{"asset":{"copyright":"Copyright 2020 Trimble Inc. All Rights Reserved.","generator":"SketchUp GLTF Exporter","version":"2.0"},"accessors":[{"bufferView":1,"componentType":5126,"count":18,"type":"VEC2"},{"bufferView":2,"componentType":5123,"count":18,"type":"SCALAR"},{"bufferView":3,"componentType":5126,"count":18,"type":"VEC3","max":[2744.8818359375,1574.8031005859376,3.2340409964754017e-33],"min":[9.842519760131836,0.269795686006546,0.0]},{"bufferView":4,"componentType":5126,"count":18,"type":"VEC3","max":[-1.158582718648451e-36,-9.123841297169135e-37,-1.0],"min":[-1.158582718648451e-36,-9.123841297169135e-37,-1.0]},{"bufferView":6,"componentType":5126,"count":18,"type":"VEC2"},{"bufferView":7,"componentType":5123,"count":18,"type":"SCALAR"},{"bufferView":8,"componentType":5126,"count":18,"type":"VEC3","max":[2744.8818359375,1574.8031005859376,3.2340409964754017e-33],"min":[9.842519760131836,0.269795686006546,0.0]},{"bufferView":9,"componentType":5126,"count":18,"type":"VEC3","max":[1.158582718648451e-36,9.123841297169135e-37,1.0],"min":[1.158582718648451e-36,9.123841297169135e-37,1.0]},{"bufferView":10,"componentType":5126,"count":6,"type":"VEC2"},{"bufferView":11,"componentType":5123,"count":6,"type":"SCALAR"},{"bufferView":12,"componentType":5126,"count":6,"type":"VEC3","max":[2755.905517578125,393.7007751464844,312.99212646484377],"min":[2744.8818359375,393.7007751464844,0.0]},{"bufferView":13,"componentType":5126,"count":6,"type":"VEC3","max":[7.734765214114422e-15,-1.0,9.080646489541779e-17],"min":[7.734765214114422e-15,-1.0,9.080646489541779e-17]},{"bufferView":14,"componentType":5126,"count":6,"type":"VEC2"},{"bufferView":15,"componentType":5123,"count":6,"type":"SCALAR"},{"bufferView":16,"componentType":5126,"count":6,"type":"VEC3","max":[9.842519760131836,393.7007751464844,312.99212646484377],"min":[0.0,393.7007751464844,0.0]},{"bufferView":17,"componentType":5126,"count":6,"type":"VEC3","max":[-0.0,1.0,-0.0],"min":[-0.0,1.0,-0.0]},{"bufferView":18,"componentType":5126,"count":6,"type":"VEC2"},{"bufferView":19,"componentType":5123,"count":6,"type":"SCALAR"},{"bufferView":20,"componentType":5126,"count":6,"type":"VEC3","max":[9.842519760131836,393.7007751464844,312.99212646484377],"min":[0.0,0.269795686006546,312.99212646484377]},{"bufferView":21,"componentType":5126,"count":6,"type":"VEC3","max":[-0.0,-0.0,1.0],"min":[-0.0,-0.0,1.0]},{"bufferView":22,"componentType":5126,"count":6,"type":"VEC2"},{"bufferView":23,"componentType":5123,"count":6,"type":"SCALAR"},{"bufferView":24,"componentType":5126,"count":6,"type":"VEC3","max":[3.552713678800501e-15,393.7007751464844,312.99212646484377],"min":[0.0,0.269795686006546,0.0]},{"bufferView":25,"componentType":5126,"count":6,"type":"VEC3","max":[-1.0,-9.186356035922993e-18,-3.2857856608678736e-34],"min":[-1.0,-9.186356035922993e-18,-3.2857856608678736e-34]},{"bufferView":26,"componentType":5123,"count":6,"type":"SCALAR"},{"bufferView":27,"componentType":5126,"count":6,"type":"VEC3","max":[3.552713678800501e-15,393.7007751464844,312.99212646484377],"min":[0.0,0.269795686006546,0.0]},{"bufferView":28,"componentType":5126,"count":6,"type":"VEC3","max":[1.0,9.186356035922993e-18,3.2857856608678736e-34],"min":[1.0,9.186356035922993e-18,3.2857856608678736e-34]},{"bufferView":29,"componentType":5126,"count":6,"type":"VEC2"},{"bufferView":30,"componentType":5123,"count":6,"type":"SCALAR"},{"bufferView":31,"componentType":5126,"count":6,"type":"VEC3","max":[9.842519760131836,393.7007751464844,3.2340409964754017e-33],"min":[0.0,0.269795686006546,0.0]},{"bufferView":32,"componentType":5126,"count":6,"type":"VEC3","max":[3.2857856608678736e-34,0.0,-1.0],"min":[3.2857856608678736e-34,0.0,-1.0]},{"bufferView":33,"componentType":5123,"count":6,"type":"SCALAR"},{"bufferView":34,"componentType":5126,"count":6,"type":"VEC3","max":[9.842519760131836,393.7007751464844,3.2340409964754017e-33],"min":[0.0,0.269795686006546,0.0]},{"bufferView":35,"componentType":5126,"count":6,"type":"VEC3","max":[-3.2857856608678736e-34,-0.0,1.0],"min":[-3.2857856608678736e-34,-0.0,1.0]},{"bufferView":36,"componentType":5126,"count":6,"type":"VEC2"},{"bufferView":37,"componentType":5123,"count":6,"type":"SCALAR"},{"bufferView":38,"componentType":5126,"count":6,"type":"VEC3","max":[1574.8031005859376,1574.8031005859376,312.99212646484377],"min":[1181.1024169921876,1574.8031005859376,0.0]},{"bufferView":39,"componentType":5126,"count":6,"type":"VEC3","max":[-0.0,1.0,-0.0],"min":[-0.0,1.0,-0.0]},{"bufferView":40,"componentType":5126,"count":18,"type":"VEC2"},{"bufferView":41,"componentType":5123,"count":18,"type":"SCALAR"},{"bufferView":42,"componentType":5126,"count":18,"type":"VEC3","max":[2744.8818359375,1574.8031005859376,312.99212646484377],"min":[9.842519760131836,0.269795686006546,312.99212646484377]},{"bufferView":43,"componentType":5126,"count":18,"type":"VEC3","max":[-0.0,-0.0,1.0],"min":[-0.0,-0.0,1.0]},{"bufferView":44,"componentType":5126,"count":6,"type":"VEC2"},{"bufferView":45,"componentType":5123,"count":6,"type":"SCALAR"},{"bufferView":46,"componentType":5126,"count":6,"type":"VEC3","max":[9.842519760131836,0.269795686006546,312.99212646484377],"min":[3.552713678800501e-15,0.269795686006546,0.0]},{"bufferView":47,"componentType":5126,"count":6,"type":"VEC3","max":[-0.0,1.0,-0.0],"min":[-0.0,1.0,-0.0]},{"bufferView":48,"componentType":5126,"count":6,"type":"VEC2"},{"bufferView":49,"componentType":5123,"count":6,"type":"SCALAR"},{"bufferView":50,"componentType":5126,"count":6,"type":"VEC3","max":[2744.8818359375,393.7007751464844,312.99212646484377],"min":[2744.8818359375,0.269795686006546,0.0]},{"bufferView":51,"componentType":5126,"count":6,"type":"VEC3","max":[1.0,-0.0,-0.0],"min":[1.0,-0.0,-0.0]},{"bufferView":52,"componentType":5123,"count":6,"type":"SCALAR"},{"bufferView":53,"componentType":5126,"count":6,"type":"VEC3","max":[2688.223876953125,0.269795686006546,256.33416748046877],"min":[56.657962799072269,0.269795686006546,56.657962799072269]},{"bufferView":54,"componentType":5126,"count":6,"type":"VEC3","max":[-0.0,1.0,-0.0],"min":[-0.0,1.0,-0.0]},{"bufferView":55,"componentType":5126,"count":6,"type":"VEC2"},{"bufferView":56,"componentType":5123,"count":6,"type":"SCALAR"},{"bufferView":57,"componentType":5126,"count":6,"type":"VEC3","max":[9.842519760131836,393.7007751464844,312.99212646484377],"min":[9.842519760131836,0.269795686006546,3.2340409964754017e-33]},{"bufferView":58,"componentType":5126,"count":6,"type":"VEC3","max":[1.0,9.030080938696412e-18,-0.0],"min":[1.0,9.030080938696412e-18,-0.0]},{"bufferView":59,"componentType":5126,"count":24,"type":"VEC2"},{"bufferView":60,"componentType":5123,"count":24,"type":"SCALAR"},{"bufferView":61,"componentType":5126,"count":24,"type":"VEC3","max":[2744.8818359375,0.269795686006546,312.99212646484377],"min":[9.842519760131836,0.269795686006546,0.0]},{"bufferView":62,"componentType":5126,"count":24,"type":"VEC3","max":[-0.0,1.0,-0.0],"min":[-0.0,1.0,-0.0]},{"bufferView":63,"componentType":5126,"count":2,"type":"VEC3","max":[9.842519760131836,-3.269503342446579e-15,312.99212646484377],"min":[9.842519760131836,-0.12390509247779846,312.99212646484377]},{"bufferView":64,"componentType":5126,"count":2,"type":"VEC3","max":[9.842519760131836,0.269795686006546,3.194741924885979e-17],"min":[9.842519760131836,-3.269503342446579e-15,3.2340409964754017e-33]}],"bufferViews":[{"buffer":0,"byteOffset":0,"byteLength":213749},{"buffer":0,"byteOffset":213752,"byteLength":144,"target":34962},{"buffer":0,"byteOffset":213896,"byteLength":36,"target":34963},{"buffer":0,"byteOffset":213932,"byteLength":216,"target":34962},{"buffer":0,"byteOffset":214148,"byteLength":216,"target":34962},{"buffer":0,"byteOffset":214364,"byteLength":30896},{"buffer":0,"byteOffset":245260,"byteLength":144,"target":34962},{"buffer":0,"byteOffset":245404,"byteLength":36,"target":34963},{"buffer":0,"byteOffset":245440,"byteLength":216,"target":34962},{"buffer":0,"byteOffset":245656,"byteLength":216,"target":34962},{"buffer":0,"byteOffset":245872,"byteLength":48,"target":34962},{"buffer":0,"byteOffset":245920,"byteLength":12,"target":34963},{"buffer":0,"byteOffset":245932,"byteLength":72,"target":34962},{"buffer":0,"byteOffset":246004,"byteLength":72,"target":34962},{"buffer":0,"byteOffset":246076,"byteLength":48,"target":34962},{"buffer":0,"byteOffset":246124,"byteLength":12,"target":34963},{"buffer":0,"byteOffset":246136,"byteLength":72,"target":34962},{"buffer":0,"byteOffset":246208,"byteLength":72,"target":34962},{"buffer":0,"byteOffset":246280,"byteLength":48,"target":34962},{"buffer":0,"byteOffset":246328,"byteLength":12,"target":34963},{"buffer":0,"byteOffset":246340,"byteLength":72,"target":34962},{"buffer":0,"byteOffset":246412,"byteLength":72,"target":34962},{"buffer":0,"byteOffset":246484,"byteLength":48,"target":34962},{"buffer":0,"byteOffset":246532,"byteLength":12,"target":34963},{"buffer":0,"byteOffset":246544,"byteLength":72,"target":34962},{"buffer":0,"byteOffset":246616,"byteLength":72,"target":34962},{"buffer":0,"byteOffset":246688,"byteLength":12,"target":34963},{"buffer":0,"byteOffset":246700,"byteLength":72,"target":34962},{"buffer":0,"byteOffset":246772,"byteLength":72,"target":34962},{"buffer":0,"byteOffset":246844,"byteLength":48,"target":34962},{"buffer":0,"byteOffset":246892,"byteLength":12,"target":34963},{"buffer":0,"byteOffset":246904,"byteLength":72,"target":34962},{"buffer":0,"byteOffset":246976,"byteLength":72,"target":34962},{"buffer":0,"byteOffset":247048,"byteLength":12,"target":34963},{"buffer":0,"byteOffset":247060,"byteLength":72,"target":34962},{"buffer":0,"byteOffset":247132,"byteLength":72,"target":34962},{"buffer":0,"byteOffset":247204,"byteLength":48,"target":34962},{"buffer":0,"byteOffset":247252,"byteLength":12,"target":34963},{"buffer":0,"byteOffset":247264,"byteLength":72,"target":34962},{"buffer":0,"byteOffset":247336,"byteLength":72,"target":34962},{"buffer":0,"byteOffset":247408,"byteLength":144,"target":34962},{"buffer":0,"byteOffset":247552,"byteLength":36,"target":34963},{"buffer":0,"byteOffset":247588,"byteLength":216,"target":34962},{"buffer":0,"byteOffset":247804,"byteLength":216,"target":34962},{"buffer":0,"byteOffset":248020,"byteLength":48,"target":34962},{"buffer":0,"byteOffset":248068,"byteLength":12,"target":34963},{"buffer":0,"byteOffset":248080,"byteLength":72,"target":34962},{"buffer":0,"byteOffset":248152,"byteLength":72,"target":34962},{"buffer":0,"byteOffset":248224,"byteLength":48,"target":34962},{"buffer":0,"byteOffset":248272,"byteLength":12,"target":34963},{"buffer":0,"byteOffset":248284,"byteLength":72,"target":34962},{"buffer":0,"byteOffset":248356,"byteLength":72,"target":34962},{"buffer":0,"byteOffset":248428,"byteLength":12,"target":34963},{"buffer":0,"byteOffset":248440,"byteLength":72,"target":34962},{"buffer":0,"byteOffset":248512,"byteLength":72,"target":34962},{"buffer":0,"byteOffset":248584,"byteLength":48,"target":34962},{"buffer":0,"byteOffset":248632,"byteLength":12,"target":34963},{"buffer":0,"byteOffset":248644,"byteLength":72,"target":34962},{"buffer":0,"byteOffset":248716,"byteLength":72,"target":34962},{"buffer":0,"byteOffset":248788,"byteLength":192,"target":34962},{"buffer":0,"byteOffset":248980,"byteLength":48,"target":34963},{"buffer":0,"byteOffset":249028,"byteLength":288,"target":34962},{"buffer":0,"byteOffset":249316,"byteLength":288,"target":34962},{"buffer":0,"byteOffset":249604,"byteLength":24,"target":34962},{"buffer":0,"byteOffset":249628,"byteLength":24,"target":34962}],"buffers":[{"byteLength":249652,"uri":"0.bin"}],"images":[{"name":"9DC3E4DE-BCEB-472D-877F-2CBE10A49CA9.jpeg","bufferView":0,"mimeType":"image/jpeg"},{"name":"C5433782-6012-46D8-89AC-D23D985CD3F8.jpeg","bufferView":5,"mimeType":"image/jpeg"}],"materials":[{"pbrMetallicRoughness":{"baseColorFactor":[0.686274528503418,0.46666666865348818,0.45098039507865908,1.0],"baseColorTexture":{"index":0}},"name":"Material"},{"pbrMetallicRoughness":{"baseColorFactor":[0.42352941632270815,0.239215686917305,0.11764705926179886,1.0],"baseColorTexture":{"index":1}},"name":"Material1"},{"pbrMetallicRoughness":{"baseColorFactor":[0.686274528503418,0.46666666865348818,0.45098039507865908,1.0],"baseColorTexture":{"index":0}},"name":"Material","doubleSided":true},{"pbrMetallicRoughness":{"baseColorFactor":[0.686274528503418,0.46666666865348818,0.45098039507865908,1.0],"baseColorTexture":{"index":0}},"name":"Material","doubleSided":true},{"pbrMetallicRoughness":{"baseColorFactor":[0.686274528503418,0.46666666865348818,0.45098039507865908,1.0],"baseColorTexture":{"index":0}},"name":"Material","doubleSided":true},{"pbrMetallicRoughness":{"baseColorFactor":[0.686274528503418,0.46666666865348818,0.45098039507865908,1.0],"baseColorTexture":{"index":0}},"name":"Material"},{"pbrMetallicRoughness":{"baseColorFactor":[0.9803921580314636,0.9803921580314636,0.9803921580314636,1.0]},"name":"default_face_material"},{"pbrMetallicRoughness":{"baseColorFactor":[0.686274528503418,0.46666666865348818,0.45098039507865908,1.0],"baseColorTexture":{"index":0}},"name":"Material"},{"pbrMetallicRoughness":{"baseColorFactor":[0.9803921580314636,0.9803921580314636,0.9803921580314636,1.0]},"name":"default_face_material1"},{"pbrMetallicRoughness":{"baseColorFactor":[0.686274528503418,0.46666666865348818,0.45098039507865908,1.0],"baseColorTexture":{"index":0}},"name":"Material","doubleSided":true},{"pbrMetallicRoughness":{"baseColorFactor":[0.686274528503418,0.46666666865348818,0.45098039507865908,1.0],"baseColorTexture":{"index":0}},"name":"Material","doubleSided":true},{"pbrMetallicRoughness":{"baseColorFactor":[0.686274528503418,0.46666666865348818,0.45098039507865908,1.0],"baseColorTexture":{"index":0}},"name":"Material","doubleSided":true},{"pbrMetallicRoughness":{"baseColorFactor":[0.686274528503418,0.46666666865348818,0.45098039507865908,1.0],"baseColorTexture":{"index":0}},"name":"Material","doubleSided":true},{"pbrMetallicRoughness":{"baseColorFactor":[0.0,0.0,0.0,0.20392157137393952]},"alphaMode":"BLEND","name":"Material2 '","doubleSided":true},{"pbrMetallicRoughness":{"baseColorFactor":[0.686274528503418,0.46666666865348818,0.45098039507865908,1.0],"baseColorTexture":{"index":0}},"name":"Material","doubleSided":true},{"pbrMetallicRoughness":{"baseColorFactor":[0.686274528503418,0.46666666865348818,0.45098039507865908,1.0],"baseColorTexture":{"index":0}},"name":"Material","doubleSided":true},{"pbrMetallicRoughness":{"baseColorFactor":[0.0,0.0,0.0,1.0],"metallicFactor":0.20000000298023225,"roughnessFactor":0.4000000059604645},"doubleSided":true}],"meshes":[{"primitives":[{"attributes":{"POSITION":2,"NORMAL":3,"TEXCOORD_0":0},"indices":1,"material":0},{"attributes":{"NORMAL":7,"POSITION":6,"TEXCOORD_0":4},"indices":5,"material":1},{"attributes":{"POSITION":10,"NORMAL":11,"TEXCOORD_0":8},"indices":9,"material":2},{"attributes":{"NORMAL":15,"POSITION":14,"TEXCOORD_0":12},"indices":13,"material":3},{"attributes":{"POSITION":18,"NORMAL":19,"TEXCOORD_0":16},"indices":17,"material":4},{"attributes":{"POSITION":22,"NORMAL":23,"TEXCOORD_0":20},"indices":21,"material":5},{"attributes":{"NORMAL":26,"POSITION":25},"indices":24,"material":6},{"attributes":{"NORMAL":30,"POSITION":29,"TEXCOORD_0":27},"indices":28,"material":7},{"attributes":{"NORMAL":33,"POSITION":32},"indices":31,"material":8},{"attributes":{"POSITION":36,"NORMAL":37,"TEXCOORD_0":34},"indices":35,"material":9},{"attributes":{"POSITION":40,"NORMAL":41,"TEXCOORD_0":38},"indices":39,"material":10},{"attributes":{"POSITION":44,"NORMAL":45,"TEXCOORD_0":42},"indices":43,"material":11},{"attributes":{"POSITION":48,"NORMAL":49,"TEXCOORD_0":46},"indices":47,"material":12},{"attributes":{"NORMAL":52,"POSITION":51},"indices":50,"material":13},{"attributes":{"NORMAL":56,"POSITION":55,"TEXCOORD_0":53},"indices":54,"material":14},{"attributes":{"NORMAL":60,"POSITION":59,"TEXCOORD_0":57},"indices":58,"material":15}]},{"name":"Edge","primitives":[{"attributes":{"POSITION":61},"material":16,"mode":1},{"attributes":{"POSITION":62},"material":16,"mode":1}]}],"nodes":[{"mesh":1,"name":"Edge"},{"children":[0],"matrix":[0.02539999969303608,0.0,0.0,0.0,0.0,0.0,-0.02539999969303608,0.0,0.0,0.02539999969303608,0.0,0.0,0.0,0.0,0.0,1.0],"mesh":0,"name":"Root Node"}],"scenes":[{"nodes":[1]}],"textures":[{"source":0},{"source":1}],"scene":0}