{"buffers":[{"uri":"model_pack.bin","byteLength":15936}],"asset":{"version":"2.0","generator":"gltfpack 0.18"},"extensionsUsed":["KHR_mesh_quantization"],"extensionsRequired":["KHR_mesh_quantization"],"bufferViews":[{"buffer":0,"byteOffset":0,"byteLength":3888,"byteStride":4,"target":34962},{"buffer":0,"byteOffset":3888,"byteLength":7808,"byteStride":8,"target":34962},{"buffer":0,"byteOffset":11696,"byteLength":4238,"target":34963}],"accessors":[{"bufferView":0,"byteOffset":0,"componentType":5120,"count":262,"type":"VEC3","normalized":true},{"bufferView":1,"byteOffset":0,"componentType":5123,"count":262,"type":"VEC3","min":[0,0,0],"max":[7236,9209,16383]},{"bufferView":2,"byteOffset":0,"componentType":5123,"count":654,"type":"SCALAR"},{"bufferView":1,"byteOffset":2096,"componentType":5123,"count":356,"type":"VEC3","min":[0,0,0],"max":[7236,9209,16383]},{"bufferView":0,"byteOffset":1048,"componentType":5120,"count":356,"type":"VEC3","normalized":true},{"bufferView":2,"byteOffset":1308,"componentType":5123,"count":675,"type":"SCALAR"},{"bufferView":1,"byteOffset":4944,"componentType":5123,"count":117,"type":"VEC3","min":[0,0,0],"max":[7236,9162,16383]},{"bufferView":0,"byteOffset":2472,"componentType":5120,"count":117,"type":"VEC3","normalized":true},{"bufferView":2,"byteOffset":2658,"componentType":5123,"count":249,"type":"SCALAR"},{"bufferView":0,"byteOffset":2940,"componentType":5120,"count":71,"type":"VEC3","normalized":true},{"bufferView":1,"byteOffset":5880,"componentType":5123,"count":71,"type":"VEC3","min":[0,5874,0],"max":[7236,8974,16383]},{"bufferView":2,"byteOffset":3156,"componentType":5123,"count":135,"type":"SCALAR"},{"bufferView":0,"byteOffset":3224,"componentType":5120,"count":16,"type":"VEC3","normalized":true},{"bufferView":1,"byteOffset":6448,"componentType":5123,"count":16,"type":"VEC3","min":[0,7805,0],"max":[7236,8363,16383]},{"bufferView":2,"byteOffset":3426,"componentType":5123,"count":36,"type":"SCALAR"},{"bufferView":0,"byteOffset":3288,"componentType":5120,"count":47,"type":"VEC3","normalized":true},{"bufferView":1,"byteOffset":6576,"componentType":5123,"count":47,"type":"VEC3","min":[0,7805,0],"max":[7236,9162,16383]},{"bufferView":2,"byteOffset":3498,"componentType":5123,"count":117,"type":"SCALAR"},{"bufferView":0,"byteOffset":3476,"componentType":5120,"count":31,"type":"VEC3","normalized":true},{"bufferView":1,"byteOffset":6952,"componentType":5123,"count":31,"type":"VEC3","min":[282,8363,846],"max":[7236,9162,15537]},{"bufferView":2,"byteOffset":3732,"componentType":5123,"count":81,"type":"SCALAR"},{"bufferView":1,"byteOffset":7200,"componentType":5123,"count":24,"type":"VEC3","min":[143,8410,7816],"max":[143,9162,8567]},{"bufferView":0,"byteOffset":3600,"componentType":5120,"count":24,"type":"VEC3","normalized":true},{"bufferView":2,"byteOffset":3894,"componentType":5123,"count":66,"type":"SCALAR"},{"bufferView":1,"byteOffset":7392,"componentType":5123,"count":24,"type":"VEC3","min":[143,8410,7816],"max":[143,9162,8567]},{"bufferView":0,"byteOffset":3696,"componentType":5120,"count":24,"type":"VEC3","normalized":true},{"bufferView":2,"byteOffset":4026,"componentType":5123,"count":66,"type":"SCALAR"},{"bufferView":1,"byteOffset":7584,"componentType":5123,"count":24,"type":"VEC3","min":[188,2637,1835],"max":[188,6396,14548]},{"bufferView":0,"byteOffset":3792,"componentType":5120,"count":24,"type":"VEC3","normalized":true},{"bufferView":2,"byteOffset":4158,"componentType":5123,"count":36,"type":"SCALAR"},{"bufferView":1,"byteOffset":7776,"componentType":5123,"count":4,"type":"VEC3","min":[45,5874,425],"max":[7220,5874,16383]},{"bufferView":2,"byteOffset":4230,"componentType":5123,"count":4,"type":"SCALAR"}],"materials":[{"name":"Dark Brown","pbrMetallicRoughness":{"baseColorFactor":[0.345098048,0.196078435,0,1]},"doubleSided":true},{"name":"default_face_material","pbrMetallicRoughness":{"baseColorFactor":[0.980392158,0.980392158,0.980392158,1]},"doubleSided":true},{"name":"Dark Brown","pbrMetallicRoughness":{"baseColorFactor":[0.345098048,0.196078435,0,1]}},{"name":"default_face_material12","pbrMetallicRoughness":{"baseColorFactor":[0.980392158,0.980392158,0.980392158,1]}},{"name":"Material7","pbrMetallicRoughness":{"baseColorFactor":[0.721568644,0.588235319,0.466666669,1]}},{"name":"Material7","pbrMetallicRoughness":{"baseColorFactor":[0.721568644,0.588235319,0.466666669,1]},"doubleSided":true},{"pbrMetallicRoughness":{"baseColorFactor":[0,0,0,1],"metallicFactor":0.200000003,"roughnessFactor":0.400000006},"doubleSided":true}],"meshes":[{"primitives":[{"attributes":{"NORMAL":0,"POSITION":1},"indices":2,"material":0},{"attributes":{"POSITION":3,"NORMAL":4},"indices":5,"material":0},{"attributes":{"POSITION":6,"NORMAL":7},"indices":8,"material":1},{"attributes":{"NORMAL":9,"POSITION":10},"indices":11,"material":1},{"attributes":{"NORMAL":12,"POSITION":13},"indices":14,"material":2},{"attributes":{"NORMAL":15,"POSITION":16},"indices":17,"material":3},{"attributes":{"NORMAL":18,"POSITION":19},"indices":20,"material":4},{"attributes":{"POSITION":21,"NORMAL":22},"indices":23,"material":4},{"attributes":{"POSITION":24,"NORMAL":25},"indices":26,"material":3},{"attributes":{"POSITION":27,"NORMAL":28},"indices":29,"material":5},{"attributes":{"POSITION":30},"mode":1,"indices":31,"material":6}]}],"nodes":[{"mesh":0,"translation":[-9.58788621e-17,-2.47039475e-17,-1.74342966],"scale":[0.000106416999,0.000106416999,0.000106416999]}],"scenes":[{"nodes":[0]}],"scene":0}