{"buffers":[{"uri":"model_pack.bin","byteLength":274340}],"asset":{"version":"2.0","generator":"gltfpack 0.18"},"extensionsUsed":["KHR_mesh_quantization","KHR_texture_transform"],"extensionsRequired":["KHR_mesh_quantization"],"bufferViews":[{"buffer":0,"byteOffset":0,"byteLength":213749},{"buffer":0,"byteOffset":213752,"byteLength":57303},{"buffer":0,"byteOffset":271056,"byteLength":1312,"byteStride":8,"target":34962},{"buffer":0,"byteOffset":272368,"byteLength":648,"byteStride":4,"target":34962},{"buffer":0,"byteOffset":273016,"byteLength":600,"byteStride":4,"target":34962},{"buffer":0,"byteOffset":273616,"byteLength":724,"target":34963}],"accessors":[{"bufferView":2,"byteOffset":0,"componentType":5123,"count":65,"type":"VEC3","min":[0,0,0],"max":[9634,4899,16383]},{"bufferView":3,"byteOffset":0,"componentType":5120,"count":65,"type":"VEC3","normalized":true},{"bufferView":4,"byteOffset":0,"componentType":5123,"count":65,"type":"VEC2","normalized":true},{"bufferView":5,"byteOffset":0,"componentType":5123,"count":99,"type":"SCALAR"},{"bufferView":3,"byteOffset":260,"componentType":5120,"count":77,"type":"VEC3","normalized":true},{"bufferView":2,"byteOffset":520,"componentType":5123,"count":77,"type":"VEC3","min":[0,0,0],"max":[9634,4899,16383]},{"bufferView":4,"byteOffset":260,"componentType":5123,"count":77,"type":"VEC2","normalized":true},{"bufferView":5,"byteOffset":198,"componentType":5123,"count":225,"type":"SCALAR"},{"bufferView":2,"byteOffset":1136,"componentType":5123,"count":8,"type":"VEC3","min":[127,33,0],"max":[9410,33,16256]},{"bufferView":3,"byteOffset":568,"componentType":5120,"count":8,"type":"VEC3","normalized":true},{"bufferView":4,"byteOffset":568,"componentType":5123,"count":8,"type":"VEC2","normalized":true},{"bufferView":5,"byteOffset":648,"componentType":5123,"count":18,"type":"SCALAR"},{"bufferView":3,"byteOffset":600,"componentType":5120,"count":12,"type":"VEC3","normalized":true},{"bufferView":2,"byteOffset":1200,"componentType":5123,"count":12,"type":"VEC3","min":[364,106,0],"max":[8903,4354,127]},{"bufferView":5,"byteOffset":684,"componentType":5123,"count":18,"type":"SCALAR"},{"bufferView":2,"byteOffset":1296,"componentType":5123,"count":2,"type":"VEC3","min":[9634,0,16256],"max":[9634,33,16256]},{"bufferView":5,"byteOffset":720,"componentType":5123,"count":2,"type":"SCALAR"}],"images":[{"bufferView":0,"mimeType":"image/jpeg"},{"bufferView":1,"mimeType":"image/jpeg"}],"textures":[{"source":0},{"source":1}],"materials":[{"name":"Material1","pbrMetallicRoughness":{"baseColorFactor":[0.686274529,0.466666669,0.450980395,1],"baseColorTexture":{"index":0,"extensions":{"KHR_texture_transform":{"offset":[-60,-60],"scale":[1920.43958,960.219788]}}}},"doubleSided":true},{"name":"Material","pbrMetallicRoughness":{"baseColorFactor":[0.811764717,0.654901981,0.41568628,1],"baseColorTexture":{"index":1,"extensions":{"KHR_texture_transform":{"offset":[0.0136574209,-1.01557207],"scale":[16.003664,16.1270885]}}}},"doubleSided":true},{"name":"Glass","pbrMetallicRoughness":{"baseColorFactor":[0,0,0,0.196078435]},"alphaMode":"BLEND","doubleSided":true},{"pbrMetallicRoughness":{"baseColorFactor":[0,0,0,1],"metallicFactor":0.200000003,"roughnessFactor":0.400000006},"doubleSided":true}],"meshes":[{"primitives":[{"attributes":{"POSITION":0,"NORMAL":1,"TEXCOORD_0":2},"indices":3,"material":0},{"attributes":{"NORMAL":4,"POSITION":5,"TEXCOORD_0":6},"indices":7,"material":0},{"attributes":{"POSITION":8,"NORMAL":9,"TEXCOORD_0":10},"indices":11,"material":1},{"attributes":{"NORMAL":12,"POSITION":13},"indices":14,"material":2},{"attributes":{"POSITION":15},"mode":1,"indices":16,"material":3}]}],"nodes":[{"mesh":0,"translation":[0,-7.21911411e-16,-30.0000019],"scale":[0.00183116656,0.00183116656,0.00183116656]}],"scenes":[{"nodes":[0]}],"scene":0}