{"buffers":[{"uri":"packed.bin","byteLength":295576}],"asset":{"version":"2.0","generator":"gltfpack 0.18"},"extensionsUsed":["KHR_mesh_quantization","KHR_texture_transform"],"extensionsRequired":["KHR_mesh_quantization"],"bufferViews":[{"buffer":0,"byteOffset":0,"byteLength":213749},{"buffer":0,"byteOffset":213752,"byteLength":57303},{"buffer":0,"byteOffset":271056,"byteLength":20340},{"buffer":0,"byteOffset":291396,"byteLength":1680,"byteStride":8,"target":34962},{"buffer":0,"byteOffset":293076,"byteLength":832,"byteStride":4,"target":34962},{"buffer":0,"byteOffset":293908,"byteLength":752,"byteStride":4,"target":34962},{"buffer":0,"byteOffset":294660,"byteLength":916,"target":34963}],"accessors":[{"bufferView":3,"byteOffset":0,"componentType":5123,"count":69,"type":"VEC3","min":[0,0,0],"max":[9634,4899,16383]},{"bufferView":4,"byteOffset":0,"componentType":5120,"count":69,"type":"VEC3","normalized":true},{"bufferView":5,"byteOffset":0,"componentType":5123,"count":69,"type":"VEC2","normalized":true},{"bufferView":6,"byteOffset":0,"componentType":5123,"count":117,"type":"SCALAR"},{"bufferView":4,"byteOffset":276,"componentType":5120,"count":103,"type":"VEC3","normalized":true},{"bufferView":3,"byteOffset":552,"componentType":5123,"count":103,"type":"VEC3","min":[0,0,0],"max":[9634,4899,16383]},{"bufferView":5,"byteOffset":276,"componentType":5123,"count":103,"type":"VEC2","normalized":true},{"bufferView":6,"byteOffset":234,"componentType":5123,"count":279,"type":"SCALAR"},{"bufferView":3,"byteOffset":1376,"componentType":5123,"count":8,"type":"VEC3","min":[127,33,0],"max":[9410,33,16256]},{"bufferView":4,"byteOffset":688,"componentType":5120,"count":8,"type":"VEC3","normalized":true},{"bufferView":5,"byteOffset":688,"componentType":5123,"count":8,"type":"VEC2","normalized":true},{"bufferView":6,"byteOffset":792,"componentType":5123,"count":18,"type":"SCALAR"},{"bufferView":4,"byteOffset":720,"componentType":5120,"count":20,"type":"VEC3","normalized":true},{"bufferView":3,"byteOffset":1440,"componentType":5123,"count":20,"type":"VEC3","min":[364,106,0],"max":[9634,4354,15773]},{"bufferView":6,"byteOffset":828,"componentType":5123,"count":30,"type":"SCALAR"},{"bufferView":4,"byteOffset":800,"componentType":5120,"count":4,"type":"VEC3","normalized":true},{"bufferView":3,"byteOffset":1600,"componentType":5123,"count":4,"type":"VEC3","min":[127,4899,127],"max":[9410,4899,16256]},{"bufferView":5,"byteOffset":720,"componentType":5123,"count":4,"type":"VEC2","normalized":true},{"bufferView":6,"byteOffset":888,"componentType":5123,"count":6,"type":"SCALAR"},{"bufferView":4,"byteOffset":816,"componentType":5120,"count":4,"type":"VEC3","normalized":true},{"bufferView":3,"byteOffset":1632,"componentType":5123,"count":4,"type":"VEC3","min":[127,4899,127],"max":[9410,4899,16256]},{"bufferView":5,"byteOffset":736,"componentType":5123,"count":4,"type":"VEC2","normalized":true},{"bufferView":6,"byteOffset":900,"componentType":5123,"count":6,"type":"SCALAR"},{"bufferView":3,"byteOffset":1664,"componentType":5123,"count":2,"type":"VEC3","min":[9634,0,16256],"max":[9634,33,16256]},{"bufferView":6,"byteOffset":912,"componentType":5123,"count":2,"type":"SCALAR"}],"images":[{"bufferView":0,"mimeType":"image/jpeg"},{"bufferView":1,"mimeType":"image/jpeg"},{"bufferView":2,"mimeType":"image/jpeg"}],"textures":[{"source":0},{"source":1},{"source":2}],"materials":[{"name":"Material1","pbrMetallicRoughness":{"baseColorFactor":[0.686274529,0.466666669,0.450980395,1],"baseColorTexture":{"index":0,"extensions":{"KHR_texture_transform":{"offset":[-20,-20],"scale":[640.146545,320.073273]}}}},"doubleSided":true},{"name":"Material","pbrMetallicRoughness":{"baseColorFactor":[0.811764717,0.654901981,0.41568628,1],"baseColorTexture":{"index":1,"extensions":{"KHR_texture_transform":{"offset":[0.0136574209,-1.01557207],"scale":[16.003664,16.1270885]}}}},"doubleSided":true},{"name":"Glass","pbrMetallicRoughness":{"baseColorFactor":[0,0,0,0.196078435]},"alphaMode":"BLEND","doubleSided":true},{"name":"Roof","pbrMetallicRoughness":{"baseColorFactor":[0.31764707,0.321568638,0.309803933,1],"baseColorTexture":{"index":2,"extensions":{"KHR_texture_transform":{"offset":[0.116088077,-14.8839121],"scale":[136.031143,236.339279]}}}}},{"name":"Material1","pbrMetallicRoughness":{"baseColorFactor":[0.686274529,0.466666669,0.450980395,1],"baseColorTexture":{"index":0,"extensions":{"KHR_texture_transform":{"offset":[0.154784098,-19.8452168],"scale":[181.374847,315.119049]}}}}},{"pbrMetallicRoughness":{"baseColorFactor":[0,0,0,1],"metallicFactor":0.200000003,"roughnessFactor":0.400000006},"doubleSided":true}],"meshes":[{"primitives":[{"attributes":{"POSITION":0,"NORMAL":1,"TEXCOORD_0":2},"indices":3,"material":0},{"attributes":{"NORMAL":4,"POSITION":5,"TEXCOORD_0":6},"indices":7,"material":0},{"attributes":{"POSITION":8,"NORMAL":9,"TEXCOORD_0":10},"indices":11,"material":1},{"attributes":{"NORMAL":12,"POSITION":13},"indices":14,"material":2},{"attributes":{"NORMAL":15,"POSITION":16,"TEXCOORD_0":17},"indices":18,"material":3},{"attributes":{"NORMAL":19,"POSITION":20,"TEXCOORD_0":21},"indices":22,"material":4},{"attributes":{"POSITION":23},"mode":1,"indices":24,"material":5}]}],"nodes":[{"mesh":0,"translation":[0,-7.21911411e-16,-30.0000019],"scale":[0.00183116656,0.00183116656,0.00183116656]}],"scenes":[{"nodes":[0]}],"scene":0}