{"buffers":[{"uri":"model_packed.bin","byteLength":20808}],"asset":{"version":"2.0","generator":"gltfpack 0.18"},"extensionsUsed":["KHR_mesh_quantization"],"extensionsRequired":["KHR_mesh_quantization"],"bufferViews":[{"buffer":0,"byteOffset":0,"byteLength":10224,"byteStride":8,"target":34962},{"buffer":0,"byteOffset":10224,"byteLength":5112,"byteStride":4,"target":34962},{"buffer":0,"byteOffset":15336,"byteLength":5472,"target":34963}],"accessors":[{"bufferView":0,"byteOffset":0,"componentType":5123,"count":47,"type":"VEC3","min":[0,0,3259],"max":[10448,14511,15429]},{"bufferView":1,"byteOffset":0,"componentType":5120,"count":47,"type":"VEC3","normalized":true},{"bufferView":2,"byteOffset":0,"componentType":5123,"count":87,"type":"SCALAR"},{"bufferView":1,"byteOffset":188,"componentType":5120,"count":99,"type":"VEC3","normalized":true},{"bufferView":0,"byteOffset":376,"componentType":5123,"count":99,"type":"VEC3","min":[0,0,3259],"max":[5401,14511,15429]},{"bufferView":2,"byteOffset":174,"componentType":5123,"count":189,"type":"SCALAR"},{"bufferView":0,"byteOffset":1168,"componentType":5123,"count":4,"type":"VEC3","min":[2124,6926,8408],"max":[3891,6926,10280]},{"bufferView":1,"byteOffset":584,"componentType":5120,"count":4,"type":"VEC3","normalized":true},{"bufferView":2,"byteOffset":552,"componentType":5123,"count":6,"type":"SCALAR"},{"bufferView":1,"byteOffset":600,"componentType":5120,"count":50,"type":"VEC3","normalized":true},{"bufferView":0,"byteOffset":1200,"componentType":5123,"count":50,"type":"VEC3","min":[7376,0,6100],"max":[10781,1386,16383]},{"bufferView":2,"byteOffset":564,"componentType":5123,"count":90,"type":"SCALAR"},{"bufferView":1,"byteOffset":800,"componentType":5120,"count":50,"type":"VEC3","normalized":true},{"bufferView":0,"byteOffset":1600,"componentType":5123,"count":50,"type":"VEC3","min":[7376,0,6100],"max":[10781,1386,16383]},{"bufferView":2,"byteOffset":744,"componentType":5123,"count":90,"type":"SCALAR"},{"bufferView":0,"byteOffset":2000,"componentType":5123,"count":148,"type":"VEC3","min":[7376,0,6100],"max":[10781,1386,16383]},{"bufferView":1,"byteOffset":1000,"componentType":5120,"count":148,"type":"VEC3","normalized":true},{"bufferView":2,"byteOffset":924,"componentType":5123,"count":576,"type":"SCALAR"},{"bufferView":0,"byteOffset":3184,"componentType":5123,"count":148,"type":"VEC3","min":[7376,0,6100],"max":[10781,1386,16383]},{"bufferView":1,"byteOffset":1592,"componentType":5120,"count":148,"type":"VEC3","normalized":true},{"bufferView":2,"byteOffset":2076,"componentType":5123,"count":576,"type":"SCALAR"},{"bufferView":0,"byteOffset":4368,"componentType":5123,"count":8,"type":"VEC3","min":[7376,0,0],"max":[12525,0,4681]},{"bufferView":1,"byteOffset":2184,"componentType":5120,"count":8,"type":"VEC3","normalized":true},{"bufferView":2,"byteOffset":3228,"componentType":5123,"count":24,"type":"SCALAR"},{"bufferView":0,"byteOffset":4432,"componentType":5123,"count":24,"type":"VEC3","min":[8663,0,1872],"max":[11003,468,2809]},{"bufferView":1,"byteOffset":2216,"componentType":5120,"count":24,"type":"VEC3","normalized":true},{"bufferView":2,"byteOffset":3276,"componentType":5123,"count":48,"type":"SCALAR"},{"bufferView":1,"byteOffset":2312,"componentType":5120,"count":4,"type":"VEC3","normalized":true},{"bufferView":0,"byteOffset":4624,"componentType":5123,"count":4,"type":"VEC3","min":[3423,7345,3730],"max":[3423,14062,14991]},{"bufferView":2,"byteOffset":3372,"componentType":5123,"count":6,"type":"SCALAR"},{"bufferView":0,"byteOffset":4656,"componentType":5123,"count":20,"type":"VEC3","min":[9014,468,2278],"max":[9424,565,2410]},{"bufferView":1,"byteOffset":2328,"componentType":5120,"count":20,"type":"VEC3","normalized":true},{"bufferView":2,"byteOffset":3384,"componentType":5123,"count":30,"type":"SCALAR"},{"bufferView":1,"byteOffset":2408,"componentType":5120,"count":4,"type":"VEC3","normalized":true},{"bufferView":0,"byteOffset":4816,"componentType":5123,"count":4,"type":"VEC3","min":[7710,67,8519],"max":[10546,1291,8519]},{"bufferView":2,"byteOffset":3444,"componentType":5123,"count":6,"type":"SCALAR"},{"bufferView":1,"byteOffset":2424,"componentType":5120,"count":320,"type":"VEC3","normalized":true},{"bufferView":0,"byteOffset":4848,"componentType":5123,"count":320,"type":"VEC3","min":[7926,136,8774],"max":[10305,1229,15697]},{"bufferView":2,"byteOffset":3456,"componentType":5123,"count":480,"type":"SCALAR"},{"bufferView":0,"byteOffset":7408,"componentType":5123,"count":352,"type":"VEC3","min":[7926,136,8774],"max":[10305,1229,15697]},{"bufferView":1,"byteOffset":3704,"componentType":5120,"count":352,"type":"VEC3","normalized":true},{"bufferView":2,"byteOffset":4416,"componentType":5123,"count":528,"type":"SCALAR"}],"materials":[{"name":"Material9","pbrMetallicRoughness":{"baseColorFactor":[0.396078438,0.4627451,0.521568656,1]},"doubleSided":true},{"name":"default_face_material","pbrMetallicRoughness":{"baseColorFactor":[0.980392158,0.980392158,0.980392158,1]},"doubleSided":true},{"name":"Material9","pbrMetallicRoughness":{"baseColorFactor":[0.396078438,0.4627451,0.521568656,1]}},{"name":"default_face_material1","pbrMetallicRoughness":{"baseColorFactor":[0.980392158,0.980392158,0.980392158,1]}},{"name":"Material","pbrMetallicRoughness":{"baseColorFactor":[0.992156863,0.796078444,0.243137255,1]},"doubleSided":true},{"name":"Material5","pbrMetallicRoughness":{"baseColorFactor":[0.0666666701,0.0549019612,0.0470588244,1]},"doubleSided":true},{"name":"Red","pbrMetallicRoughness":{"baseColorFactor":[0.447058827,0,0,1]},"doubleSided":true},{"name":"<auto>1","pbrMetallicRoughness":{},"doubleSided":true}],"meshes":[{"primitives":[{"attributes":{"POSITION":0,"NORMAL":1},"indices":2,"material":0},{"attributes":{"NORMAL":3,"POSITION":4},"indices":5,"material":0},{"attributes":{"POSITION":6,"NORMAL":7},"indices":8,"material":1},{"attributes":{"NORMAL":9,"POSITION":10},"indices":11,"material":2},{"attributes":{"NORMAL":12,"POSITION":13},"indices":14,"material":3},{"attributes":{"POSITION":15,"NORMAL":16},"indices":17,"material":2},{"attributes":{"POSITION":18,"NORMAL":19},"indices":20,"material":3},{"attributes":{"POSITION":21,"NORMAL":22},"indices":23,"material":4},{"attributes":{"POSITION":24,"NORMAL":25},"indices":26,"material":5},{"attributes":{"NORMAL":27,"POSITION":28},"indices":29,"material":5},{"attributes":{"POSITION":30,"NORMAL":31},"indices":32,"material":6},{"attributes":{"NORMAL":33,"POSITION":34},"indices":35,"material":1},{"attributes":{"NORMAL":36,"POSITION":37},"indices":38,"material":7},{"attributes":{"POSITION":39,"NORMAL":40},"indices":41,"material":7}]}],"nodes":[{"mesh":0,"translation":[0.277077973,-1.12798658e-17,-0.729801834],"scale":[2.13636122e-05,2.13636122e-05,2.13636122e-05]}],"scenes":[{"nodes":[0]}],"scene":0}