{"buffers":[{"uri":"packed.bin","byteLength":249464}],"asset":{"version":"2.0","generator":"gltfpack 0.18"},"extensionsUsed":["KHR_mesh_quantization","KHR_texture_transform"],"extensionsRequired":["KHR_mesh_quantization"],"bufferViews":[{"buffer":0,"byteOffset":0,"byteLength":30896},{"buffer":0,"byteOffset":30896,"byteLength":213749},{"buffer":0,"byteOffset":244648,"byteLength":1024,"byteStride":4,"target":34962},{"buffer":0,"byteOffset":245672,"byteLength":2192,"byteStride":8,"target":34962},{"buffer":0,"byteOffset":247864,"byteLength":496,"byteStride":4,"target":34962},{"buffer":0,"byteOffset":248360,"byteLength":1104,"target":34963}],"accessors":[{"bufferView":2,"byteOffset":0,"componentType":5120,"count":12,"type":"VEC3","normalized":true},{"bufferView":3,"byteOffset":0,"componentType":5123,"count":12,"type":"VEC3","min":[191,95,0],"max":[7392,95,15165]},{"bufferView":4,"byteOffset":0,"componentType":5123,"count":12,"type":"VEC2","normalized":true},{"bufferView":5,"byteOffset":0,"componentType":5123,"count":30,"type":"SCALAR"},{"bufferView":3,"byteOffset":96,"componentType":5123,"count":44,"type":"VEC3","min":[191,0,0],"max":[7582,4019,15165]},{"bufferView":2,"byteOffset":48,"componentType":5120,"count":44,"type":"VEC3","normalized":true},{"bufferView":4,"byteOffset":48,"componentType":5123,"count":44,"type":"VEC2","normalized":true},{"bufferView":5,"byteOffset":60,"componentType":5123,"count":84,"type":"SCALAR"},{"bufferView":2,"byteOffset":224,"componentType":5120,"count":64,"type":"VEC3","normalized":true},{"bufferView":3,"byteOffset":448,"componentType":5123,"count":64,"type":"VEC3","min":[0,0,0],"max":[7582,4019,15165]},{"bufferView":4,"byteOffset":224,"componentType":5123,"count":64,"type":"VEC2","normalized":true},{"bufferView":5,"byteOffset":228,"componentType":5123,"count":156,"type":"SCALAR"},{"bufferView":2,"byteOffset":480,"componentType":5120,"count":32,"type":"VEC3","normalized":true},{"bufferView":3,"byteOffset":960,"componentType":5123,"count":32,"type":"VEC3","min":[191,1244,191],"max":[7392,3828,14967]},{"bufferView":5,"byteOffset":540,"componentType":5123,"count":60,"type":"SCALAR"},{"bufferView":3,"byteOffset":1216,"componentType":5123,"count":4,"type":"VEC3","min":[0,0,0],"max":[7582,0,15165]},{"bufferView":2,"byteOffset":608,"componentType":5120,"count":4,"type":"VEC3","normalized":true},{"bufferView":4,"byteOffset":480,"componentType":5123,"count":4,"type":"VEC2","normalized":true},{"bufferView":5,"byteOffset":660,"componentType":5123,"count":6,"type":"SCALAR"},{"bufferView":3,"byteOffset":1248,"componentType":5123,"count":4,"type":"VEC3","min":[3155,1488,15165],"max":[6770,2880,15165]},{"bufferView":2,"byteOffset":624,"componentType":5120,"count":4,"type":"VEC3","normalized":true},{"bufferView":5,"byteOffset":672,"componentType":5123,"count":6,"type":"SCALAR"},{"bufferView":2,"byteOffset":640,"componentType":5120,"count":4,"type":"VEC3","normalized":true},{"bufferView":3,"byteOffset":1280,"componentType":5123,"count":4,"type":"VEC3","min":[206,1305,1700],"max":[206,2881,8144]},{"bufferView":5,"byteOffset":684,"componentType":5123,"count":6,"type":"SCALAR"},{"bufferView":3,"byteOffset":1312,"componentType":5123,"count":12,"type":"VEC3","min":[206,1305,1700],"max":[251,2881,8144]},{"bufferView":2,"byteOffset":656,"componentType":5120,"count":12,"type":"VEC3","normalized":true},{"bufferView":5,"byteOffset":696,"componentType":5123,"count":18,"type":"SCALAR"},{"bufferView":3,"byteOffset":1408,"componentType":5123,"count":40,"type":"VEC3","min":[0,95,15165],"max":[874,2880,16383]},{"bufferView":2,"byteOffset":704,"componentType":5120,"count":40,"type":"VEC3","normalized":true},{"bufferView":5,"byteOffset":732,"componentType":5123,"count":84,"type":"SCALAR"},{"bufferView":3,"byteOffset":1728,"componentType":5123,"count":12,"type":"VEC3","min":[93,95,15165],"max":[874,2880,16249]},{"bufferView":2,"byteOffset":864,"componentType":5120,"count":12,"type":"VEC3","normalized":true},{"bufferView":5,"byteOffset":900,"componentType":5123,"count":18,"type":"SCALAR"},{"bufferView":2,"byteOffset":912,"componentType":5120,"count":20,"type":"VEC3","normalized":true},{"bufferView":3,"byteOffset":1824,"componentType":5123,"count":20,"type":"VEC3","min":[62,95,15208],"max":[874,2880,16383]},{"bufferView":5,"byteOffset":936,"componentType":5123,"count":54,"type":"SCALAR"},{"bufferView":2,"byteOffset":992,"componentType":5120,"count":8,"type":"VEC3","normalized":true},{"bufferView":3,"byteOffset":1984,"componentType":5123,"count":8,"type":"VEC3","min":[155,258,15342],"max":[782,2717,16249]},{"bufferView":5,"byteOffset":1044,"componentType":5123,"count":12,"type":"SCALAR"},{"bufferView":3,"byteOffset":2048,"componentType":5123,"count":18,"type":"VEC3","min":[191,95,0],"max":[7392,3828,15165]},{"bufferView":5,"byteOffset":1068,"componentType":5123,"count":18,"type":"SCALAR"}],"images":[{"bufferView":0,"mimeType":"image/jpeg"},{"bufferView":1,"mimeType":"image/jpeg"}],"textures":[{"source":0},{"source":1}],"materials":[{"name":"Material1","pbrMetallicRoughness":{"baseColorFactor":[0.423529416,0.239215687,0.117647059,1],"baseColorTexture":{"index":0,"extensions":{"KHR_texture_transform":{"offset":[-6.25,-12.5],"scale":[197.531143,200.045792]}}}},"doubleSided":true},{"name":"Brick","pbrMetallicRoughness":{"baseColorFactor":[0.686274529,0.466666669,0.450980395,1],"baseColorTexture":{"index":1,"extensions":{"KHR_texture_transform":{"offset":[-20,-20],"scale":[640.146545,320.073273]}}}},"doubleSided":true},{"name":"Material9","pbrMetallicRoughness":{"baseColorFactor":[0.396078438,0.4627451,0.521568656,1]},"doubleSided":true},{"name":"Glass","pbrMetallicRoughness":{"baseColorFactor":[0,0,0,0.200000003]},"alphaMode":"BLEND","doubleSided":true},{"name":"default_face_material","pbrMetallicRoughness":{"baseColorFactor":[0.980392158,0.980392158,0.980392158,1]},"doubleSided":true},{"name":"Material5","pbrMetallicRoughness":{"baseColorFactor":[0.196078435,0.129411772,0.0549019612,1]},"doubleSided":true},{"pbrMetallicRoughness":{"baseColorFactor":[0,0,0,1],"metallicFactor":0.200000003,"roughnessFactor":0.400000006},"doubleSided":true}],"meshes":[{"primitives":[{"attributes":{"NORMAL":0,"POSITION":1,"TEXCOORD_0":2},"indices":3,"material":0},{"attributes":{"POSITION":4,"NORMAL":5,"TEXCOORD_0":6},"indices":7,"material":1},{"attributes":{"NORMAL":8,"POSITION":9,"TEXCOORD_0":10},"indices":11,"material":1},{"attributes":{"NORMAL":12,"POSITION":13},"indices":14,"material":2},{"attributes":{"POSITION":15,"NORMAL":16,"TEXCOORD_0":17},"indices":18,"material":0},{"attributes":{"POSITION":19,"NORMAL":20},"indices":21,"material":3},{"attributes":{"NORMAL":22,"POSITION":23},"indices":24,"material":4},{"attributes":{"POSITION":25,"NORMAL":26},"indices":27,"material":2},{"attributes":{"POSITION":28,"NORMAL":29},"indices":30,"material":5},{"attributes":{"POSITION":31,"NORMAL":32},"indices":33,"material":4},{"attributes":{"NORMAL":34,"POSITION":35},"indices":36,"material":5},{"attributes":{"NORMAL":37,"POSITION":38},"indices":39,"material":3},{"attributes":{"POSITION":40},"mode":1,"indices":41,"material":6}]}],"nodes":[{"mesh":0,"translation":[0,0,-10],"scale":[0.000659428828,0.000659428828,0.000659428828]}],"scenes":[{"nodes":[0]}],"scene":0}