{"buffers":[{"uri":"packed.bin","byteLength":269820}],"asset":{"version":"2.0","generator":"gltfpack 0.18"},"extensionsUsed":["KHR_mesh_quantization","KHR_texture_transform"],"extensionsRequired":["KHR_mesh_quantization"],"bufferViews":[{"buffer":0,"byteOffset":0,"byteLength":30896},{"buffer":0,"byteOffset":30896,"byteLength":213749},{"buffer":0,"byteOffset":244648,"byteLength":20340},{"buffer":0,"byteOffset":264988,"byteLength":1024,"byteStride":4,"target":34962},{"buffer":0,"byteOffset":266012,"byteLength":2192,"byteStride":8,"target":34962},{"buffer":0,"byteOffset":268204,"byteLength":512,"byteStride":4,"target":34962},{"buffer":0,"byteOffset":268716,"byteLength":1104,"target":34963}],"accessors":[{"bufferView":3,"byteOffset":0,"componentType":5120,"count":12,"type":"VEC3","normalized":true},{"bufferView":4,"byteOffset":0,"componentType":5123,"count":12,"type":"VEC3","min":[191,95,0],"max":[7392,95,15165]},{"bufferView":5,"byteOffset":0,"componentType":5123,"count":12,"type":"VEC2","normalized":true},{"bufferView":6,"byteOffset":0,"componentType":5123,"count":30,"type":"SCALAR"},{"bufferView":4,"byteOffset":96,"componentType":5123,"count":46,"type":"VEC3","min":[0,0,0],"max":[7582,4019,15165]},{"bufferView":3,"byteOffset":48,"componentType":5120,"count":46,"type":"VEC3","normalized":true},{"bufferView":5,"byteOffset":48,"componentType":5123,"count":46,"type":"VEC2","normalized":true},{"bufferView":6,"byteOffset":60,"componentType":5123,"count":108,"type":"SCALAR"},{"bufferView":3,"byteOffset":232,"componentType":5120,"count":62,"type":"VEC3","normalized":true},{"bufferView":4,"byteOffset":464,"componentType":5123,"count":62,"type":"VEC3","min":[0,0,0],"max":[7582,4019,15165]},{"bufferView":5,"byteOffset":232,"componentType":5123,"count":62,"type":"VEC2","normalized":true},{"bufferView":6,"byteOffset":276,"componentType":5123,"count":132,"type":"SCALAR"},{"bufferView":4,"byteOffset":960,"componentType":5123,"count":4,"type":"VEC3","min":[191,3828,191],"max":[7392,3828,14967]},{"bufferView":3,"byteOffset":480,"componentType":5120,"count":4,"type":"VEC3","normalized":true},{"bufferView":5,"byteOffset":480,"componentType":5123,"count":4,"type":"VEC2","normalized":true},{"bufferView":6,"byteOffset":540,"componentType":5123,"count":6,"type":"SCALAR"},{"bufferView":4,"byteOffset":992,"componentType":5123,"count":4,"type":"VEC3","min":[0,0,0],"max":[7582,0,15165]},{"bufferView":3,"byteOffset":496,"componentType":5120,"count":4,"type":"VEC3","normalized":true},{"bufferView":5,"byteOffset":496,"componentType":5123,"count":4,"type":"VEC2","normalized":true},{"bufferView":6,"byteOffset":552,"componentType":5123,"count":6,"type":"SCALAR"},{"bufferView":4,"byteOffset":1024,"componentType":5123,"count":8,"type":"VEC3","min":[251,1244,1639],"max":[251,2943,8205]},{"bufferView":3,"byteOffset":512,"componentType":5120,"count":8,"type":"VEC3","normalized":true},{"bufferView":6,"byteOffset":564,"componentType":5123,"count":24,"type":"SCALAR"},{"bufferView":3,"byteOffset":544,"componentType":5120,"count":32,"type":"VEC3","normalized":true},{"bufferView":4,"byteOffset":1088,"componentType":5123,"count":32,"type":"VEC3","min":[191,1244,1639],"max":[251,2943,8205]},{"bufferView":6,"byteOffset":612,"componentType":5123,"count":48,"type":"SCALAR"},{"bufferView":3,"byteOffset":672,"componentType":5120,"count":4,"type":"VEC3","normalized":true},{"bufferView":4,"byteOffset":1344,"componentType":5123,"count":4,"type":"VEC3","min":[206,1305,1700],"max":[206,2881,8144]},{"bufferView":6,"byteOffset":708,"componentType":5123,"count":6,"type":"SCALAR"},{"bufferView":4,"byteOffset":1376,"componentType":5123,"count":72,"type":"VEC3","min":[0,95,15165],"max":[874,2880,16383]},{"bufferView":3,"byteOffset":688,"componentType":5120,"count":72,"type":"VEC3","normalized":true},{"bufferView":6,"byteOffset":720,"componentType":5123,"count":156,"type":"SCALAR"},{"bufferView":3,"byteOffset":976,"componentType":5120,"count":12,"type":"VEC3","normalized":true},{"bufferView":4,"byteOffset":1952,"componentType":5123,"count":12,"type":"VEC3","min":[155,258,15165],"max":[6770,2880,16249]},{"bufferView":6,"byteOffset":1032,"componentType":5123,"count":18,"type":"SCALAR"},{"bufferView":4,"byteOffset":2048,"componentType":5123,"count":18,"type":"VEC3","min":[191,95,0],"max":[7392,3828,15165]},{"bufferView":6,"byteOffset":1068,"componentType":5123,"count":18,"type":"SCALAR"}],"images":[{"bufferView":0,"mimeType":"image/jpeg"},{"bufferView":1,"mimeType":"image/jpeg"},{"bufferView":2,"mimeType":"image/jpeg"}],"textures":[{"source":0},{"source":1},{"source":2}],"materials":[{"name":"Material1","pbrMetallicRoughness":{"baseColorFactor":[0.423529416,0.239215687,0.117647059,1],"baseColorTexture":{"index":0,"extensions":{"KHR_texture_transform":{"offset":[-6.25,-12.5],"scale":[197.531143,200.045792]}}}},"doubleSided":true},{"name":"Brick","pbrMetallicRoughness":{"baseColorFactor":[0.686274529,0.466666669,0.450980395,1],"baseColorTexture":{"index":1,"extensions":{"KHR_texture_transform":{"offset":[-20,-20],"scale":[640.146545,320.073273]}}}},"doubleSided":true},{"name":"Material","pbrMetallicRoughness":{"baseColorFactor":[0.31764707,0.321568638,0.309803933,1],"baseColorTexture":{"index":2,"extensions":{"KHR_texture_transform":{"offset":[-15.9917879,-32.3959885],"scale":[249.327087,511.628754]}}}},"doubleSided":true},{"name":"Material9","pbrMetallicRoughness":{"baseColorFactor":[0.396078438,0.4627451,0.521568656,1]},"doubleSided":true},{"name":"default_face_material","pbrMetallicRoughness":{"baseColorFactor":[0.980392158,0.980392158,0.980392158,1]},"doubleSided":true},{"name":"Material5","pbrMetallicRoughness":{"baseColorFactor":[0.196078435,0.129411772,0.0549019612,1]},"doubleSided":true},{"name":"Glass","pbrMetallicRoughness":{"baseColorFactor":[0,0,0,0.200000003]},"alphaMode":"BLEND","doubleSided":true},{"pbrMetallicRoughness":{"baseColorFactor":[0,0,0,1],"metallicFactor":0.200000003,"roughnessFactor":0.400000006},"doubleSided":true}],"meshes":[{"primitives":[{"attributes":{"NORMAL":0,"POSITION":1,"TEXCOORD_0":2},"indices":3,"material":0},{"attributes":{"POSITION":4,"NORMAL":5,"TEXCOORD_0":6},"indices":7,"material":1},{"attributes":{"NORMAL":8,"POSITION":9,"TEXCOORD_0":10},"indices":11,"material":1},{"attributes":{"POSITION":12,"NORMAL":13,"TEXCOORD_0":14},"indices":15,"material":2},{"attributes":{"POSITION":16,"NORMAL":17,"TEXCOORD_0":18},"indices":19,"material":0},{"attributes":{"POSITION":20,"NORMAL":21},"indices":22,"material":3},{"attributes":{"NORMAL":23,"POSITION":24},"indices":25,"material":3},{"attributes":{"NORMAL":26,"POSITION":27},"indices":28,"material":4},{"attributes":{"POSITION":29,"NORMAL":30},"indices":31,"material":5},{"attributes":{"NORMAL":32,"POSITION":33},"indices":34,"material":6},{"attributes":{"POSITION":35},"mode":1,"indices":36,"material":7}]}],"nodes":[{"mesh":0,"translation":[0,0,-10],"scale":[0.000659428828,0.000659428828,0.000659428828]}],"scenes":[{"nodes":[0]}],"scene":0}