{"buffers":[{"uri":"packed.bin","byteLength":3768}],"asset":{"version":"2.0","generator":"gltfpack 0.18"},"extensionsUsed":["KHR_mesh_quantization"],"extensionsRequired":["KHR_mesh_quantization"],"bufferViews":[{"buffer":0,"byteOffset":0,"byteLength":1896,"byteStride":8,"target":34962},{"buffer":0,"byteOffset":1896,"byteLength":948,"byteStride":4,"target":34962},{"buffer":0,"byteOffset":2844,"byteLength":924,"target":34963}],"accessors":[{"bufferView":0,"byteOffset":0,"componentType":5123,"count":6,"type":"VEC3","min":[15871,1713,512],"max":[16383,1713,16383]},{"bufferView":1,"byteOffset":0,"componentType":5120,"count":6,"type":"VEC3","normalized":true},{"bufferView":2,"byteOffset":0,"componentType":5123,"count":12,"type":"SCALAR"},{"bufferView":1,"byteOffset":24,"componentType":5120,"count":44,"type":"VEC3","normalized":true},{"bufferView":0,"byteOffset":48,"componentType":5123,"count":44,"type":"VEC3","min":[0,0,0],"max":[16383,1713,16383]},{"bufferView":2,"byteOffset":24,"componentType":5123,"count":102,"type":"SCALAR"},{"bufferView":0,"byteOffset":400,"componentType":5123,"count":22,"type":"VEC3","min":[512,0,0],"max":[16383,1713,16383]},{"bufferView":1,"byteOffset":200,"componentType":5120,"count":22,"type":"VEC3","normalized":true},{"bufferView":2,"byteOffset":228,"componentType":5123,"count":42,"type":"SCALAR"},{"bufferView":0,"byteOffset":576,"componentType":5123,"count":40,"type":"VEC3","min":[0,0,0],"max":[16383,1713,16383]},{"bufferView":1,"byteOffset":288,"componentType":5120,"count":40,"type":"VEC3","normalized":true},{"bufferView":2,"byteOffset":312,"componentType":5123,"count":72,"type":"SCALAR"},{"bufferView":0,"byteOffset":896,"componentType":5123,"count":39,"type":"VEC3","min":[0,0,0],"max":[16383,1713,16383]},{"bufferView":1,"byteOffset":448,"componentType":5120,"count":39,"type":"VEC3","normalized":true},{"bufferView":2,"byteOffset":456,"componentType":5123,"count":78,"type":"SCALAR"},{"bufferView":1,"byteOffset":604,"componentType":5120,"count":10,"type":"VEC3","normalized":true},{"bufferView":0,"byteOffset":1208,"componentType":5123,"count":10,"type":"VEC3","min":[0,1713,0],"max":[16383,1713,16383]},{"bufferView":2,"byteOffset":612,"componentType":5123,"count":24,"type":"SCALAR"},{"bufferView":1,"byteOffset":644,"componentType":5120,"count":30,"type":"VEC3","normalized":true},{"bufferView":0,"byteOffset":1288,"componentType":5123,"count":30,"type":"VEC3","min":[0,82,0],"max":[16383,1474,16383]},{"bufferView":2,"byteOffset":660,"componentType":5123,"count":54,"type":"SCALAR"},{"bufferView":1,"byteOffset":764,"componentType":5120,"count":28,"type":"VEC3","normalized":true},{"bufferView":0,"byteOffset":1528,"componentType":5123,"count":28,"type":"VEC3","min":[0,82,0],"max":[16383,1474,512]},{"bufferView":2,"byteOffset":768,"componentType":5123,"count":48,"type":"SCALAR"},{"bufferView":1,"byteOffset":876,"componentType":5120,"count":8,"type":"VEC3","normalized":true},{"bufferView":0,"byteOffset":1752,"componentType":5123,"count":8,"type":"VEC3","min":[16178,0,205],"max":[16383,1474,16383]},{"bufferView":2,"byteOffset":864,"componentType":5123,"count":12,"type":"SCALAR"},{"bufferView":0,"byteOffset":1816,"componentType":5123,"count":10,"type":"VEC3","min":[0,82,15871],"max":[512,1474,16383]},{"bufferView":1,"byteOffset":908,"componentType":5120,"count":10,"type":"VEC3","normalized":true},{"bufferView":2,"byteOffset":888,"componentType":5123,"count":18,"type":"SCALAR"}],"materials":[{"name":"Material1","pbrMetallicRoughness":{"baseColorFactor":[0.647058845,0,0,1]},"doubleSided":true},{"name":"Material9","pbrMetallicRoughness":{"baseColorFactor":[0.396078438,0.4627451,0.521568656,1]},"doubleSided":true},{"name":"Material9","pbrMetallicRoughness":{"baseColorFactor":[0.396078438,0.4627451,0.521568656,1]}},{"name":"default_face_material","pbrMetallicRoughness":{"baseColorFactor":[0.980392158,0.980392158,0.980392158,1]}},{"name":"default_face_material13","pbrMetallicRoughness":{"baseColorFactor":[0.980392158,0.980392158,0.980392158,1]},"doubleSided":true}],"meshes":[{"primitives":[{"attributes":{"POSITION":0,"NORMAL":1},"indices":2,"material":0},{"attributes":{"NORMAL":3,"POSITION":4},"indices":5,"material":1},{"attributes":{"POSITION":6,"NORMAL":7},"indices":8,"material":1},{"attributes":{"POSITION":9,"NORMAL":10},"indices":11,"material":2},{"attributes":{"POSITION":12,"NORMAL":13},"indices":14,"material":3},{"attributes":{"NORMAL":15,"POSITION":16},"indices":17,"material":0},{"attributes":{"NORMAL":18,"POSITION":19},"indices":20,"material":2},{"attributes":{"NORMAL":21,"POSITION":22},"indices":23,"material":3},{"attributes":{"NORMAL":24,"POSITION":25},"indices":26,"material":4},{"attributes":{"POSITION":27,"NORMAL":28},"indices":29,"material":4}]}],"nodes":[{"mesh":0,"translation":[0,-0.0363218151,0],"scale":[0.000488311052,0.000488311052,0.000488311052]}],"scenes":[{"nodes":[0]}],"scene":0}