{"buffers":[{"uri":"model.bin","byteLength":3912}],"asset":{"version":"2.0","generator":"gltfpack 0.18"},"extensionsUsed":["KHR_mesh_quantization"],"extensionsRequired":["KHR_mesh_quantization"],"bufferViews":[{"buffer":0,"byteOffset":0,"byteLength":1960,"byteStride":8,"target":34962},{"buffer":0,"byteOffset":1960,"byteLength":980,"byteStride":4,"target":34962},{"buffer":0,"byteOffset":2940,"byteLength":972,"target":34963}],"accessors":[{"bufferView":0,"byteOffset":0,"componentType":5123,"count":6,"type":"VEC3","min":[15871,1631,512],"max":[16383,1631,16383]},{"bufferView":1,"byteOffset":0,"componentType":5120,"count":6,"type":"VEC3","normalized":true},{"bufferView":2,"byteOffset":0,"componentType":5123,"count":12,"type":"SCALAR"},{"bufferView":1,"byteOffset":24,"componentType":5120,"count":44,"type":"VEC3","normalized":true},{"bufferView":0,"byteOffset":48,"componentType":5123,"count":44,"type":"VEC3","min":[0,0,0],"max":[16383,1631,16383]},{"bufferView":2,"byteOffset":24,"componentType":5123,"count":102,"type":"SCALAR"},{"bufferView":0,"byteOffset":400,"componentType":5123,"count":26,"type":"VEC3","min":[512,0,0],"max":[16383,1631,16383]},{"bufferView":1,"byteOffset":200,"componentType":5120,"count":26,"type":"VEC3","normalized":true},{"bufferView":2,"byteOffset":228,"componentType":5123,"count":48,"type":"SCALAR"},{"bufferView":0,"byteOffset":608,"componentType":5123,"count":47,"type":"VEC3","min":[0,0,0],"max":[16383,1631,16383]},{"bufferView":1,"byteOffset":304,"componentType":5120,"count":47,"type":"VEC3","normalized":true},{"bufferView":2,"byteOffset":324,"componentType":5123,"count":90,"type":"SCALAR"},{"bufferView":0,"byteOffset":984,"componentType":5123,"count":46,"type":"VEC3","min":[0,0,0],"max":[16383,1631,16383]},{"bufferView":1,"byteOffset":492,"componentType":5120,"count":46,"type":"VEC3","normalized":true},{"bufferView":2,"byteOffset":504,"componentType":5123,"count":96,"type":"SCALAR"},{"bufferView":1,"byteOffset":676,"componentType":5120,"count":10,"type":"VEC3","normalized":true},{"bufferView":0,"byteOffset":1352,"componentType":5123,"count":10,"type":"VEC3","min":[0,1631,0],"max":[16383,1631,16383]},{"bufferView":2,"byteOffset":696,"componentType":5123,"count":24,"type":"SCALAR"},{"bufferView":1,"byteOffset":716,"componentType":5120,"count":34,"type":"VEC3","normalized":true},{"bufferView":0,"byteOffset":1432,"componentType":5123,"count":34,"type":"VEC3","min":[0,0,0],"max":[16383,1393,16383]},{"bufferView":2,"byteOffset":744,"componentType":5123,"count":60,"type":"SCALAR"},{"bufferView":1,"byteOffset":852,"componentType":5120,"count":32,"type":"VEC3","normalized":true},{"bufferView":0,"byteOffset":1704,"componentType":5123,"count":32,"type":"VEC3","min":[0,0,0],"max":[16383,1393,512]},{"bufferView":2,"byteOffset":864,"componentType":5123,"count":54,"type":"SCALAR"}],"materials":[{"name":"Material1","pbrMetallicRoughness":{"baseColorFactor":[0.647058845,0,0,1]},"doubleSided":true},{"name":"Material9","pbrMetallicRoughness":{"baseColorFactor":[0.396078438,0.4627451,0.521568656,1]},"doubleSided":true},{"name":"Material9","pbrMetallicRoughness":{"baseColorFactor":[0.396078438,0.4627451,0.521568656,1]}},{"name":"default_face_material","pbrMetallicRoughness":{"baseColorFactor":[0.980392158,0.980392158,0.980392158,1]}}],"meshes":[{"primitives":[{"attributes":{"POSITION":0,"NORMAL":1},"indices":2,"material":0},{"attributes":{"NORMAL":3,"POSITION":4},"indices":5,"material":1},{"attributes":{"POSITION":6,"NORMAL":7},"indices":8,"material":1},{"attributes":{"POSITION":9,"NORMAL":10},"indices":11,"material":2},{"attributes":{"POSITION":12,"NORMAL":13},"indices":14,"material":3},{"attributes":{"NORMAL":15,"POSITION":16},"indices":17,"material":0},{"attributes":{"NORMAL":18,"POSITION":19},"indices":20,"material":2},{"attributes":{"NORMAL":21,"POSITION":22},"indices":23,"material":3}]}],"nodes":[{"mesh":0,"translation":[0,0.00367818424,0],"scale":[0.000488311052,0.000488311052,0.000488311052]}],"scenes":[{"nodes":[0]}],"scene":0}